<svg width="478" height="145" viewBox="0 0 478 145" fill="none" xmlns="http://www.w3.org/2000/svg">
<path d="M14.2731 130.524C13.3442 130.524 12.7531 130.793 12.4998 131.329C12.2465 131.918 12.1198 132.696 12.1198 133.661C12.1198 134.251 12.162 135.082 12.2465 136.154C12.3732 137.28 12.4365 138.352 12.4365 139.371C12.4365 141.408 12.0143 142.855 11.1698 143.713C10.3676 144.571 9.24877 145 7.81324 145C6.37771 145 5.21662 144.491 4.32997 143.472C3.44332 142.507 3 140.631 3 137.843C3 136.556 3.08444 135.296 3.25333 134.063C3.46444 132.883 3.56999 131.49 3.56999 129.881C3.56999 129.077 3.52777 128.434 3.44333 127.951C3.4011 127.469 3.33777 127.04 3.25333 126.664C3.21111 126.289 3.16889 125.914 3.12666 125.538C3.08444 125.11 3.06333 124.547 3.06333 123.85C3.06333 121.491 4.11887 120.311 6.22994 120.311C6.65215 120.311 7.20103 120.392 7.87657 120.552C8.55212 120.713 9.18544 120.794 9.77654 120.794C10.8321 120.794 11.6976 120.552 12.3732 120.07C13.0487 119.587 13.5554 118.73 13.8931 117.497C14.2309 116.21 14.5053 114.95 14.7164 113.717C14.9698 112.43 15.1598 110.929 15.2864 109.213C15.4131 107.444 15.4975 105.3 15.5398 102.78C15.6242 100.206 15.6664 96.9895 15.6664 93.1294C15.6664 91.3065 15.4342 89.9662 14.9698 89.1084C14.5053 88.197 13.9776 87.7413 13.3865 87.7413C13.0487 87.7413 12.542 87.8485 11.8665 88.0629C11.2332 88.2238 10.7265 88.3042 10.3465 88.3042C9.37544 88.3042 8.55212 87.7949 7.87657 86.7762C7.24325 85.7576 6.92659 84.4977 6.92659 82.9965C6.92659 81.2273 7.34881 79.8065 8.19324 78.7343C9.03766 77.662 10.1354 77.1259 11.4865 77.1259C11.9087 77.1259 12.3098 77.1795 12.6898 77.2867C13.0698 77.3403 13.4709 77.4207 13.8931 77.528C14.3576 77.6352 14.8642 77.7424 15.4131 77.8497C15.962 77.9033 16.6375 77.9301 17.4397 77.9301H40.176C40.556 77.9301 41.1048 77.9033 41.8226 77.8497C42.5826 77.7424 43.3848 77.6352 44.2292 77.528C45.0737 77.3671 45.8548 77.2599 46.5725 77.2063C47.3325 77.0991 47.9025 77.0455 48.2825 77.0455C49.6336 77.0455 50.7102 77.6084 51.5124 78.7343C52.3568 79.8065 52.7791 81.2273 52.7791 82.9965C52.7791 84.4977 52.4413 85.7576 51.7658 86.7762C51.1324 87.7949 50.3302 88.3042 49.3591 88.3042C48.9791 88.3042 48.4514 88.2238 47.7758 88.0629C47.1425 87.8485 46.657 87.7413 46.3192 87.7413C45.6436 87.7413 45.1792 88.0897 44.9259 88.7867C44.6726 89.4837 44.5459 90.9312 44.5459 93.1294V115.406C44.5459 118.515 44.947 120.311 45.7492 120.794C46.9314 120.686 47.9025 120.579 48.6625 120.472C49.4647 120.365 50.0558 120.311 50.4358 120.311C52.5468 120.311 53.6024 121.491 53.6024 123.85C53.6024 124.547 53.5602 125.11 53.4757 125.538C53.4335 125.914 53.3702 126.289 53.2857 126.664C53.2435 127.04 53.2013 127.469 53.1591 127.951C53.1168 128.434 53.0957 129.077 53.0957 129.881C53.0957 131.49 53.1802 132.883 53.3491 134.063C53.5602 135.296 53.6657 136.556 53.6657 137.843C53.6657 140.631 53.2224 142.507 52.3357 143.472C51.4491 144.491 50.288 145 48.8525 145C47.4169 145 46.277 144.571 45.4325 143.713C44.6303 142.855 44.2292 141.408 44.2292 139.371C44.2292 138.352 44.2714 137.28 44.3559 136.154C44.4826 135.082 44.5459 134.251 44.5459 133.661C44.5459 132.696 44.4192 131.918 44.1659 131.329C43.9126 130.793 43.3215 130.524 42.3926 130.524H14.2731ZM32.1961 121.196C32.7872 121.196 33.1461 120.874 33.2728 120.231C33.3994 119.587 33.4628 118.408 33.4628 116.692V91.4406C33.4628 90.2611 33.315 89.4569 33.0194 89.028C32.7239 88.5991 32.2806 88.3846 31.6895 88.3846H28.5229C27.8051 88.3846 27.3407 88.5723 27.1295 88.9476C26.9607 89.2692 26.8762 89.7249 26.8762 90.3147C26.8762 92.6201 26.8551 95.1131 26.8129 97.7937C26.7707 100.474 26.644 103.182 26.4329 105.916C26.2218 108.65 25.9051 111.331 25.4829 113.958C25.0607 116.585 24.4696 118.998 23.7096 121.196H32.1961Z" fill="#727272"/>
<path d="M75.9329 132.535C69.5152 132.535 64.5542 130.069 61.0498 125.136C57.5455 120.204 55.7933 113.207 55.7933 104.147C55.7933 95.4079 57.5244 88.5455 60.9865 83.5594C64.4909 78.5198 69.3041 76 75.4262 76C81.8439 76 86.8471 78.4394 90.436 83.3182C94.0248 88.197 95.8192 95.0058 95.8192 103.745C95.8192 112.805 94.067 119.882 90.5626 124.976C87.1005 130.015 82.2239 132.535 75.9329 132.535ZM75.8696 87.2587C70.3808 87.2587 67.6364 92.9417 67.6364 104.308C67.6364 109.723 68.1642 113.744 69.2197 116.371C70.5286 119.641 72.7241 121.276 75.8062 121.276C81.2528 121.276 83.9761 115.754 83.9761 104.71C83.9761 98.5979 83.3216 94.1748 82.0128 91.4406C80.7461 88.6527 78.6984 87.2587 75.8696 87.2587Z" fill="#727272"/>
<path d="M118.2 94.3357C118.2 95.9441 118.77 96.7483 119.91 96.7483C120.247 96.7483 120.754 96.7214 121.43 96.6678C122.105 96.6142 122.992 96.5874 124.09 96.5874C129.156 96.5874 133.146 98.035 136.059 100.93C139.015 103.825 140.493 108.034 140.493 113.556C140.493 116.237 140.113 118.676 139.353 120.874C138.593 123.019 137.516 124.868 136.123 126.423C134.772 127.978 133.146 129.184 131.246 130.042C129.388 130.9 127.32 131.329 125.04 131.329C124.702 131.329 124.09 131.275 123.203 131.168C122.316 131.114 121.303 131.061 120.163 131.007C119.023 130.9 117.841 130.819 116.616 130.766C115.392 130.659 114.252 130.605 113.196 130.605C112.816 130.605 112.141 130.659 111.17 130.766C110.241 130.819 109.249 130.927 108.193 131.087C107.138 131.195 106.145 131.275 105.217 131.329C104.288 131.436 103.697 131.49 103.443 131.49C102.092 131.49 100.994 130.953 100.15 129.881C99.3056 128.755 98.8834 127.308 98.8834 125.538C98.8834 124.037 99.2 122.777 99.8334 121.759C100.509 120.74 101.332 120.231 102.303 120.231C102.683 120.231 103.19 120.338 103.823 120.552C104.499 120.713 105.005 120.794 105.343 120.794C106.019 120.794 106.462 120.445 106.673 119.748C106.927 118.998 107.053 117.55 107.053 115.406V92.8881C107.053 90.8508 106.927 89.4837 106.673 88.7867C106.42 88.0897 105.977 87.7413 105.343 87.7413C105.005 87.7413 104.499 87.8485 103.823 88.0629C103.19 88.2238 102.683 88.3042 102.303 88.3042C101.332 88.3042 100.509 87.7949 99.8334 86.7762C99.2 85.7576 98.8834 84.4977 98.8834 82.9965C98.8834 79.0828 100.446 77.1259 103.57 77.1259C104.71 77.1259 106.568 77.2599 109.143 77.528C111.761 77.796 115.434 77.9301 120.163 77.9301C124.512 77.9301 127.932 77.796 130.423 77.528C132.914 77.2063 134.56 77.0455 135.363 77.0455C137.474 77.0455 138.529 78.2249 138.529 80.5839C138.529 81.9779 138.445 83.0769 138.276 83.8811C138.107 84.6317 138.023 85.5431 138.023 86.6154C138.023 87.6876 138.107 88.5991 138.276 89.3497C138.487 90.1002 138.593 90.9044 138.593 91.7622C138.593 93.5315 138.149 94.7378 137.263 95.3811C136.376 96.0245 135.215 96.3462 133.779 96.3462C132.344 96.3462 131.204 96.0781 130.359 95.542C129.557 94.9522 129.156 94.014 129.156 92.7273C129.156 92.0839 129.198 91.4138 129.283 90.7168C129.409 90.0198 129.473 89.4569 129.473 89.028C129.473 88.4382 129.346 88.0093 129.093 87.7413C128.839 87.4196 128.248 87.2587 127.32 87.2587H122C121.155 87.2587 120.48 87.3124 119.973 87.4196C119.509 87.4732 119.129 87.6608 118.833 87.9825C118.58 88.3042 118.411 88.7867 118.326 89.4301C118.242 90.0734 118.2 90.9849 118.2 92.1643V94.3357ZM118.2 116.129C118.2 117.094 118.242 117.872 118.326 118.462C118.411 119.051 118.58 119.534 118.833 119.909C119.086 120.231 119.466 120.445 119.973 120.552C120.48 120.66 121.155 120.713 122 120.713C124.28 120.713 125.968 120.124 127.066 118.944C128.164 117.765 128.713 115.888 128.713 113.315C128.713 110.795 128.164 108.999 127.066 107.927C126.011 106.854 124.406 106.318 122.253 106.318C121.662 106.318 121.113 106.345 120.606 106.399C120.142 106.399 119.72 106.533 119.34 106.801C119.002 107.015 118.727 107.364 118.516 107.846C118.305 108.329 118.2 108.999 118.2 109.857V116.129Z" fill="#727272"/>
<path d="M163.76 113.154C162.62 113.1 162.05 113.904 162.05 115.566V118.14C162.05 119.963 162.683 120.874 163.95 120.874C164.456 120.874 165.09 120.794 165.85 120.633C166.779 120.418 167.56 120.311 168.193 120.311C169.249 120.311 170.093 120.794 170.726 121.759C171.36 122.724 171.676 124.01 171.676 125.619C171.676 127.388 171.254 128.809 170.41 129.881C169.565 130.953 168.467 131.49 167.116 131.49C165.934 131.49 164.182 131.355 161.86 131.087C159.538 130.819 157.785 130.685 156.603 130.685C154.788 130.685 153.268 130.766 152.043 130.927L148.94 131.329C148.096 131.436 147.526 131.49 147.23 131.49C145.879 131.49 144.781 130.953 143.937 129.881C143.135 128.809 142.733 127.388 142.733 125.619C142.733 124.118 143.05 122.858 143.683 121.839C144.359 120.821 145.182 120.311 146.153 120.311C146.533 120.311 147.061 120.418 147.737 120.633C148.412 120.794 148.898 120.874 149.193 120.874C150.333 120.874 150.903 119.051 150.903 115.406V93.1294C150.903 91.4138 150.861 90.3147 150.777 89.8322C150.566 88.4382 150.038 87.7413 149.193 87.7413C148.856 87.7413 148.349 87.8485 147.673 88.0629C147.04 88.2238 146.533 88.3042 146.153 88.3042C145.182 88.3042 144.359 87.7949 143.683 86.7762C143.05 85.7576 142.733 84.4977 142.733 82.9965C142.733 81.2273 143.156 79.8065 144 78.7343C144.845 77.6084 145.942 77.0455 147.293 77.0455C147.336 77.0455 147.399 77.0455 147.483 77.0455C147.568 77.0991 147.652 77.1259 147.737 77.1259C148.75 77.1259 150.291 77.2599 152.36 77.528C154.429 77.796 155.991 77.9301 157.047 77.9301C159.073 77.9301 161.29 77.8228 163.696 77.6084C166.736 77.3403 168.467 77.2063 168.89 77.2063C173.492 77.2063 177.207 78.8683 180.036 82.1923C182.907 85.4627 184.343 89.7786 184.343 95.1399C184.343 100.716 182.865 105.139 179.909 108.409C176.996 111.679 173.006 113.315 167.94 113.315C167.517 113.315 166.715 113.288 165.533 113.234L163.76 113.154ZM162.05 99.5629C162.05 101.064 162.155 102.002 162.366 102.378C162.578 102.699 163.148 102.887 164.076 102.941L165.09 103.021C170.072 103.396 172.563 100.903 172.563 95.542C172.563 90.3951 170.325 87.8217 165.85 87.8217C164.752 87.8217 163.992 87.9021 163.57 88.0629C162.81 88.331 162.345 88.9744 162.176 89.993C162.092 90.5291 162.05 91.3333 162.05 92.4056V99.5629Z" fill="#727272"/>
<path d="M209.383 95.3007C209.974 95.2471 210.46 95.2203 210.84 95.2203C211.262 95.2203 211.579 95.2203 211.79 95.2203C214.323 95.2203 216.603 95.6492 218.63 96.507C220.656 97.3648 222.366 98.5979 223.76 100.206C225.195 101.761 226.293 103.664 227.053 105.916C227.813 108.168 228.193 110.661 228.193 113.395C228.193 116.076 227.813 118.515 227.053 120.713C226.293 122.911 225.216 124.788 223.823 126.343C222.472 127.897 220.846 129.131 218.946 130.042C217.089 130.9 215.02 131.329 212.74 131.329C212.402 131.329 211.79 131.275 210.903 131.168C210.016 131.114 209.003 131.061 207.863 131.007C206.723 130.9 205.541 130.819 204.317 130.766C203.092 130.659 201.952 130.605 200.897 130.605C200.517 130.605 199.841 130.659 198.87 130.766C197.941 130.819 196.949 130.927 195.893 131.087C194.838 131.195 193.846 131.275 192.917 131.329C191.988 131.436 191.397 131.49 191.143 131.49C189.792 131.49 188.695 130.953 187.85 129.881C187.006 128.755 186.584 127.308 186.584 125.538C186.584 124.037 186.9 122.777 187.534 121.759C188.209 120.74 189.032 120.231 190.003 120.231C190.383 120.231 190.89 120.338 191.523 120.552C192.199 120.713 192.706 120.794 193.043 120.794C193.719 120.794 194.162 120.445 194.373 119.748C194.627 118.998 194.753 117.55 194.753 115.406V93.1294C194.753 89.4837 194.183 87.6608 193.043 87.6608C192.748 87.6608 192.262 87.7681 191.587 87.9825C190.911 88.1434 190.383 88.2238 190.003 88.2238C189.032 88.2238 188.209 87.7145 187.534 86.6958C186.9 85.6772 186.584 84.4173 186.584 82.9161C186.584 81.1469 186.985 79.7261 187.787 78.6539C188.631 77.5816 189.729 77.0455 191.08 77.0455C192.558 77.0455 194.036 77.1795 195.513 77.4476C196.991 77.7156 198.638 77.8497 200.453 77.8497C200.96 77.8497 201.699 77.8228 202.67 77.7692C203.641 77.662 204.654 77.5548 205.71 77.4476C206.765 77.3403 207.779 77.2599 208.75 77.2063C209.721 77.0991 210.46 77.0455 210.966 77.0455C212.318 77.0455 213.415 77.5816 214.26 78.6539C215.104 79.7261 215.526 81.1469 215.526 82.9161C215.526 84.5245 215.21 85.8112 214.576 86.7762C213.943 87.7413 213.099 88.2238 212.043 88.2238C211.536 88.2238 210.84 88.1434 209.953 87.9825C209.066 87.7681 208.349 87.6608 207.8 87.6608C206.533 87.6608 205.9 88.5723 205.9 90.3951V92.9685C205.9 94.6842 206.47 95.4883 207.61 95.3811L209.383 95.3007ZM205.9 116.129C205.9 117.094 205.942 117.872 206.027 118.462C206.111 119.051 206.28 119.534 206.533 119.909C206.786 120.231 207.166 120.445 207.673 120.552C208.18 120.66 208.855 120.713 209.7 120.713C214.175 120.713 216.413 118.14 216.413 112.993C216.413 107.953 214.26 105.434 209.953 105.434C209.362 105.434 208.813 105.46 208.306 105.514C207.842 105.514 207.42 105.648 207.04 105.916C206.702 106.131 206.428 106.479 206.217 106.962C206.005 107.444 205.9 108.114 205.9 108.972V116.129ZM236.869 120.874C237.714 120.874 238.241 120.177 238.453 118.783C238.537 118.247 238.579 117.121 238.579 115.406V93.1294C238.579 91.4138 238.537 90.3147 238.453 89.8322C238.241 88.4382 237.714 87.7413 236.869 87.7413C236.531 87.7413 236.025 87.8485 235.349 88.0629C234.716 88.2238 234.209 88.3042 233.829 88.3042C232.858 88.3042 232.035 87.7949 231.359 86.7762C230.726 85.7576 230.409 84.4977 230.409 82.9965C230.409 81.1737 230.811 79.7529 231.613 78.7343C232.457 77.662 233.576 77.1259 234.969 77.1259C235.603 77.1259 237.08 77.2867 239.403 77.6084C240.965 77.8228 242.485 77.9301 243.962 77.9301C245.145 77.9301 246.834 77.796 249.029 77.528C251.267 77.2599 252.745 77.1259 253.462 77.1259C256.544 77.1259 258.086 79.0828 258.086 82.9965C258.086 84.4977 257.748 85.7576 257.072 86.7762C256.439 87.7949 255.637 88.3042 254.666 88.3042C254.328 88.3042 253.821 88.2238 253.146 88.0629C252.47 87.8485 251.963 87.7413 251.626 87.7413C250.486 87.7413 249.916 89.5373 249.916 93.1294V115.406C249.916 119.051 250.486 120.874 251.626 120.874C251.963 120.874 252.47 120.794 253.146 120.633C253.821 120.418 254.328 120.311 254.666 120.311C255.637 120.311 256.439 120.821 257.072 121.839C257.748 122.858 258.086 124.118 258.086 125.619C258.086 127.335 257.663 128.755 256.819 129.881C256.017 131.007 254.982 131.57 253.716 131.57C253.462 131.57 253.272 131.543 253.146 131.49L249.156 130.846C248.142 130.685 247.024 130.605 245.799 130.605C243.899 130.605 241.915 130.739 239.846 131.007C237.355 131.329 235.729 131.49 234.969 131.49C233.618 131.49 232.52 130.953 231.676 129.881C230.832 128.809 230.409 127.388 230.409 125.619C230.409 124.064 230.726 122.804 231.359 121.839C232.035 120.821 232.879 120.311 233.893 120.311C234.23 120.311 234.716 120.418 235.349 120.633C236.025 120.794 236.531 120.874 236.869 120.874Z" fill="#727272"/>
<path d="M269.108 116.129L275.504 104.71L269.171 92.4056C267.736 89.6177 266.342 88.2238 264.991 88.2238H264.105C263.851 88.2774 263.492 88.3042 263.028 88.3042C260.706 88.3042 259.545 86.6154 259.545 83.2378C259.545 81.4149 259.988 79.9406 260.875 78.8147C261.803 77.6888 262.986 77.1259 264.421 77.1259C265.223 77.1259 265.962 77.1795 266.638 77.2867C269.382 77.7156 271.029 77.9301 271.578 77.9301C272.38 77.9301 273.562 77.796 275.124 77.528C276.687 77.2599 277.869 77.1259 278.671 77.1259C279.853 77.1259 280.803 77.662 281.521 78.7343C282.281 79.7529 282.661 81.0932 282.661 82.7552C282.661 84.2564 282.302 85.3019 281.584 85.8916L280.571 86.6958C280.064 87.0711 279.811 87.5268 279.811 88.0629C279.811 88.7599 280.085 89.7518 280.634 91.0385L283.738 98.3566L287.347 91.0385C288.065 89.5909 288.424 88.5991 288.424 88.0629C288.424 87.5804 288.15 87.1247 287.601 86.6958C286.334 85.6772 285.701 84.3904 285.701 82.8357C285.701 81.12 286.06 79.7529 286.777 78.7343C287.495 77.662 288.445 77.1259 289.627 77.1259C290.387 77.1259 291.527 77.2599 293.047 77.528C294.567 77.796 295.728 77.9301 296.531 77.9301C297.291 77.9301 298.409 77.796 299.887 77.528C301.365 77.2599 302.463 77.1259 303.181 77.1259C304.32 77.1259 305.292 77.7156 306.094 78.8951C306.896 80.0746 307.297 81.5221 307.297 83.2378C307.297 84.7389 306.98 85.972 306.347 86.9371C305.714 87.9021 304.89 88.3846 303.877 88.3846C303.793 88.3846 303.666 88.3578 303.497 88.3042C303.328 88.3042 303.18 88.3042 303.054 88.3042C302.463 88.197 302.104 88.1434 301.977 88.1434C301.006 88.1434 299.718 89.5641 298.114 92.4056L291.781 103.503L298.114 116.129L299.254 118.059L300.204 119.829C300.668 120.311 301.175 120.552 301.724 120.552C302.146 120.552 302.526 120.499 302.864 120.392C303.033 120.392 303.244 120.365 303.497 120.311C303.75 120.311 303.94 120.311 304.067 120.311C306.263 120.311 307.36 122.027 307.36 125.458C307.36 127.174 306.938 128.621 306.094 129.801C305.249 130.927 304.173 131.49 302.864 131.49C302.484 131.49 301.386 131.302 299.571 130.927C298.811 130.766 297.565 130.685 295.834 130.685C294.018 130.685 292.667 130.766 291.781 130.927C289.754 131.302 288.614 131.49 288.361 131.49C287.305 131.49 286.461 131.007 285.828 130.042C285.194 129.023 284.878 127.737 284.878 126.182C284.878 124.895 285.025 124.01 285.321 123.528C285.616 122.992 286.25 122.375 287.221 121.678C287.812 121.249 288.107 120.794 288.107 120.311C288.107 119.936 287.854 119.185 287.347 118.059L283.738 110.098L280.064 117.175C279.22 118.783 278.798 119.882 278.798 120.472C278.798 120.901 278.988 121.276 279.368 121.598L280.571 122.563C281.458 123.26 281.901 124.466 281.901 126.182C281.901 129.72 280.613 131.49 278.038 131.49C277.869 131.49 276.391 131.275 273.604 130.846C272.464 130.685 271.451 130.605 270.564 130.605C269.467 130.605 268.432 130.712 267.461 130.927C265.815 131.302 264.696 131.49 264.105 131.49C262.753 131.49 261.656 130.927 260.811 129.801C259.967 128.675 259.545 127.227 259.545 125.458C259.545 122.027 260.642 120.311 262.838 120.311C263.133 120.311 263.556 120.365 264.105 120.472C264.653 120.579 265.055 120.633 265.308 120.633C265.772 120.633 266.11 120.526 266.321 120.311C266.575 120.043 267.081 119.319 267.841 118.14L269.108 116.129Z" fill="#727272"/>
<path d="M335.016 130.524C334.087 130.524 333.496 130.793 333.242 131.329C332.989 131.918 332.862 132.696 332.862 133.661C332.862 134.251 332.905 135.082 332.989 136.154C333.116 137.28 333.179 138.352 333.179 139.371C333.179 141.408 332.757 142.855 331.913 143.713C331.11 144.571 329.991 145 328.556 145C327.12 145 325.959 144.491 325.073 143.472C324.186 142.507 323.743 140.631 323.743 137.843C323.743 136.556 323.827 135.296 323.996 134.063C324.207 132.883 324.313 131.49 324.313 129.881C324.313 129.077 324.27 128.434 324.186 127.951C324.144 127.469 324.08 127.04 323.996 126.664C323.954 126.289 323.912 125.914 323.869 125.538C323.827 125.11 323.806 124.547 323.806 123.85C323.806 121.491 324.862 120.311 326.973 120.311C327.395 120.311 327.944 120.392 328.619 120.552C329.295 120.713 329.928 120.794 330.519 120.794C331.575 120.794 332.44 120.552 333.116 120.07C333.791 119.587 334.298 118.73 334.636 117.497C334.974 116.21 335.248 114.95 335.459 113.717C335.712 112.43 335.902 110.929 336.029 109.213C336.156 107.444 336.24 105.3 336.282 102.78C336.367 100.206 336.409 96.9895 336.409 93.1294C336.409 91.3065 336.177 89.9662 335.712 89.1084C335.248 88.197 334.72 87.7413 334.129 87.7413C333.791 87.7413 333.285 87.8485 332.609 88.0629C331.976 88.2238 331.469 88.3042 331.089 88.3042C330.118 88.3042 329.295 87.7949 328.619 86.7762C327.986 85.7576 327.669 84.4977 327.669 82.9965C327.669 81.2273 328.091 79.8065 328.936 78.7343C329.78 77.662 330.878 77.1259 332.229 77.1259C332.651 77.1259 333.053 77.1795 333.432 77.2867C333.812 77.3403 334.214 77.4207 334.636 77.528C335.1 77.6352 335.607 77.7424 336.156 77.8497C336.705 77.9033 337.38 77.9301 338.182 77.9301H360.919C361.299 77.9301 361.848 77.9033 362.565 77.8497C363.325 77.7424 364.127 77.6352 364.972 77.528C365.816 77.3671 366.597 77.2599 367.315 77.2063C368.075 77.0991 368.645 77.0455 369.025 77.0455C370.376 77.0455 371.453 77.6084 372.255 78.7343C373.1 79.8065 373.522 81.2273 373.522 82.9965C373.522 84.4977 373.184 85.7576 372.508 86.7762C371.875 87.7949 371.073 88.3042 370.102 88.3042C369.722 88.3042 369.194 88.2238 368.518 88.0629C367.885 87.8485 367.4 87.7413 367.062 87.7413C366.386 87.7413 365.922 88.0897 365.669 88.7867C365.415 89.4837 365.289 90.9312 365.289 93.1294V115.406C365.289 118.515 365.69 120.311 366.492 120.794C367.674 120.686 368.645 120.579 369.405 120.472C370.207 120.365 370.798 120.311 371.178 120.311C373.289 120.311 374.345 121.491 374.345 123.85C374.345 124.547 374.303 125.11 374.218 125.538C374.176 125.914 374.113 126.289 374.028 126.664C373.986 127.04 373.944 127.469 373.902 127.951C373.859 128.434 373.838 129.077 373.838 129.881C373.838 131.49 373.923 132.883 374.092 134.063C374.303 135.296 374.408 136.556 374.408 137.843C374.408 140.631 373.965 142.507 373.078 143.472C372.192 144.491 371.031 145 369.595 145C368.16 145 367.02 144.571 366.175 143.713C365.373 142.855 364.972 141.408 364.972 139.371C364.972 138.352 365.014 137.28 365.099 136.154C365.225 135.082 365.289 134.251 365.289 133.661C365.289 132.696 365.162 131.918 364.909 131.329C364.655 130.793 364.064 130.524 363.135 130.524H335.016ZM352.939 121.196C353.53 121.196 353.889 120.874 354.015 120.231C354.142 119.587 354.205 118.408 354.205 116.692V91.4406C354.205 90.2611 354.058 89.4569 353.762 89.028C353.467 88.5991 353.023 88.3846 352.432 88.3846H349.266C348.548 88.3846 348.083 88.5723 347.872 88.9476C347.703 89.2692 347.619 89.7249 347.619 90.3147C347.619 92.6201 347.598 95.1131 347.556 97.7937C347.513 100.474 347.387 103.182 347.176 105.916C346.964 108.65 346.648 111.331 346.226 113.958C345.803 116.585 345.212 118.998 344.452 121.196H352.939Z" fill="#727272"/>
<path d="M398.829 87.2587C397.436 87.2587 396.507 87.4196 396.042 87.7413C395.409 88.2238 395.092 89.296 395.092 90.958V95.4615C395.092 96.373 395.177 97.0699 395.346 97.5525C395.557 97.9814 396.063 98.1958 396.866 98.1958C398.723 98.1958 399.652 97.338 399.652 95.6224V94.5769C399.61 94.2552 399.589 93.8532 399.589 93.3706C399.589 91.1189 400.623 89.993 402.692 89.993C404.845 89.993 405.922 91.3601 405.922 94.0944C405.922 94.845 405.88 95.676 405.795 96.5874C405.626 98.3566 405.542 99.9918 405.542 101.493C405.542 102.887 405.626 104.656 405.795 106.801C405.964 108.945 406.049 110.446 406.049 111.304C406.049 114.467 404.93 116.049 402.692 116.049C400.581 116.049 399.526 114.682 399.526 111.948C399.526 111.679 399.526 111.545 399.526 111.545C399.526 111.277 399.568 110.634 399.652 109.615C399.652 108.329 398.744 107.685 396.929 107.685C395.704 107.685 395.092 108.543 395.092 110.259V116.29C395.092 118.167 395.346 119.453 395.852 120.15C396.401 120.794 397.393 121.115 398.829 121.115H402.502C405.204 121.115 407.083 120.821 408.139 120.231C409.236 119.641 409.785 118.596 409.785 117.094C409.785 116.344 409.722 115.459 409.595 114.441C409.469 113.368 409.405 112.484 409.405 111.787C409.405 109.803 409.849 108.248 410.735 107.122C411.622 105.997 412.825 105.434 414.345 105.434C417.427 105.434 418.968 107.578 418.968 111.867C418.968 113.261 418.905 114.735 418.779 116.29C418.567 118.864 418.462 120.472 418.462 121.115C418.462 121.705 418.567 122.858 418.779 124.573C418.905 125.592 418.968 126.638 418.968 127.71C418.968 130.23 417.723 131.49 415.232 131.49C414.43 131.49 413.1 131.409 411.242 131.248C408.16 130.98 403.241 130.793 396.486 130.685C396.486 130.685 394.607 130.685 390.849 130.685C388.738 130.685 386.986 130.766 385.592 130.927L380.779 131.49C380.737 131.49 380.653 131.516 380.526 131.57C380.399 131.57 380.294 131.57 380.209 131.57C378.9 131.57 377.824 131.007 376.979 129.881C376.177 128.755 375.776 127.335 375.776 125.619C375.776 124.118 376.093 122.858 376.726 121.839C377.401 120.821 378.246 120.311 379.259 120.311C379.597 120.311 380.104 120.418 380.779 120.633C381.455 120.794 381.94 120.874 382.236 120.874C383.376 120.874 383.946 119.051 383.946 115.406V93.1294C383.946 89.5373 383.376 87.7413 382.236 87.7413C381.983 87.7413 381.476 87.8485 380.716 88.0629C380.167 88.2238 379.681 88.3042 379.259 88.3042C378.288 88.3042 377.465 87.7949 376.789 86.7762C376.114 85.7576 375.776 84.4977 375.776 82.9965C375.776 79.0828 377.317 77.1259 380.399 77.1259C381.117 77.1259 382.574 77.2331 384.769 77.4476C388.062 77.7692 391.25 77.9301 394.332 77.9301C394.628 77.9301 397.161 77.8497 401.932 77.6888C405.394 77.5816 407.674 77.4744 408.772 77.3671C410.588 77.2063 412.487 77.1259 414.472 77.1259C416.836 77.1259 418.018 78.4394 418.018 81.0664C418.018 81.9242 417.934 83.1842 417.765 84.8462C417.639 86.5082 417.575 87.7681 417.575 88.6259C417.575 89.4837 417.66 90.7168 417.829 92.3252C418.04 93.88 418.145 95.0594 418.145 95.8636C418.145 97.4184 417.681 98.7319 416.752 99.8042C415.865 100.876 414.746 101.413 413.395 101.413C410.229 101.413 408.645 99.3485 408.645 95.2203C408.645 94.5233 408.73 93.5583 408.899 92.3252C409.11 91.0921 409.215 90.1807 409.215 89.5909C409.215 88.4114 408.73 87.6876 407.759 87.4196C407.421 87.3124 406.534 87.2587 405.099 87.2587H398.829Z" fill="#727272"/>
<path d="M434.237 119.507C434.237 120.579 434.069 121.437 433.731 122.08C433.942 122.134 434.153 122.188 434.364 122.241C434.575 122.241 434.807 122.241 435.061 122.241C436.032 122.241 436.855 121.893 437.531 121.196C438.249 120.445 438.776 119.212 439.114 117.497C439.663 114.709 440.022 111.358 440.191 107.444C440.36 103.53 440.444 98.7587 440.444 93.1294C440.444 91.3065 440.212 89.9662 439.747 89.1084C439.325 88.197 438.819 87.7413 438.227 87.7413C437.89 87.7413 437.404 87.8485 436.771 88.0629C436.18 88.2238 435.694 88.3042 435.314 88.3042C434.343 88.3042 433.52 87.7949 432.844 86.7762C432.211 85.7576 431.894 84.4977 431.894 82.9965C431.894 81.2273 432.295 79.8065 433.097 78.7343C433.9 77.662 434.976 77.1259 436.327 77.1259C437.214 77.1259 438.08 77.2599 438.924 77.528C439.811 77.796 441.056 77.9301 442.661 77.9301H465.397C465.777 77.9301 466.326 77.9033 467.044 77.8497C467.803 77.7424 468.606 77.6352 469.45 77.528C470.295 77.3671 471.076 77.2599 471.793 77.2063C472.553 77.0991 473.123 77.0455 473.503 77.0455C474.854 77.0455 475.931 77.6084 476.733 78.7343C477.578 79.8065 478 81.2273 478 82.9965C478 84.4977 477.662 85.7576 476.987 86.7762C476.353 87.7949 475.551 88.3042 474.58 88.3042C474.2 88.3042 473.672 88.2238 472.997 88.0629C472.363 87.8485 471.878 87.7413 471.54 87.7413C470.865 87.7413 470.4 88.0897 470.147 88.7867C469.893 89.4837 469.767 90.9312 469.767 93.1294V115.406C469.767 119.051 470.337 120.874 471.477 120.874C471.983 120.874 472.49 120.794 472.997 120.633C473.503 120.418 474.01 120.311 474.517 120.311C475.488 120.311 476.311 120.821 476.987 121.839C477.662 122.858 478 124.118 478 125.619C478 127.388 477.578 128.836 476.733 129.962C475.931 131.034 474.854 131.57 473.503 131.57H473.25C473.208 131.516 472.828 131.436 472.11 131.329C471.392 131.275 470.569 131.195 469.64 131.087C468.753 130.98 467.888 130.9 467.044 130.846C466.199 130.739 465.629 130.685 465.334 130.685C463.307 130.685 461.639 130.819 460.33 131.087C459.021 131.355 458.071 131.49 457.48 131.49C456.256 131.49 455.243 130.953 454.44 129.881C453.68 128.755 453.3 127.308 453.3 125.538C453.3 122.268 454.229 120.633 456.087 120.633C456.425 120.633 456.678 120.66 456.847 120.713C457.016 120.767 457.206 120.794 457.417 120.794C458.008 120.794 458.367 120.472 458.494 119.829C458.62 119.185 458.684 118.006 458.684 116.29V91.4406C458.684 90.2611 458.536 89.4569 458.24 89.028C457.945 88.5991 457.501 88.3846 456.91 88.3846H452.667C452.583 90.6364 452.498 93.1294 452.414 95.8636C452.329 98.5979 452.16 101.413 451.907 104.308C451.654 107.149 451.295 109.991 450.831 112.832C450.408 115.674 449.838 118.301 449.121 120.713C447.896 124.841 446.123 127.844 443.801 129.72C441.521 131.543 438.544 132.455 434.871 132.455C433.097 132.455 431.472 132.186 429.994 131.65C428.516 131.114 427.25 130.39 426.194 129.479C425.139 128.514 424.315 127.388 423.724 126.101C423.133 124.761 422.838 123.287 422.838 121.678C422.838 119.373 423.429 117.47 424.611 115.969C425.793 114.414 427.271 113.636 429.044 113.636C430.522 113.636 431.746 114.199 432.717 115.325C433.731 116.397 434.237 117.791 434.237 119.507Z" fill="#727272"/>
<path d="M20.4318 36.8023C19.3241 36.7492 18.7702 37.5457 18.7702 39.192V41.7411C18.7702 43.5467 19.3856 44.4495 20.6165 44.4495C21.1088 44.4495 21.7242 44.3698 22.4627 44.2105C23.3653 43.9981 24.1243 43.8919 24.7397 43.8919C25.7654 43.8919 26.586 44.3698 27.2014 45.3257C27.8168 46.2817 28.1245 47.5562 28.1245 49.1494C28.1245 50.9018 27.7143 52.3091 26.8937 53.3713C26.0732 54.4334 25.0064 54.9644 23.6935 54.9644C22.5448 54.9644 20.8421 54.8317 18.5856 54.5661C16.3291 54.3006 14.6264 54.1678 13.4776 54.1678C11.7134 54.1678 10.2364 54.2475 9.04662 54.4068L6.03108 54.8051C5.21053 54.9113 4.65665 54.9644 4.36946 54.9644C3.05657 54.9644 1.98985 54.4334 1.16929 53.3713C0.389764 52.3091 0 50.9018 0 49.1494C0 47.6624 0.307708 46.4144 0.923125 45.4054C1.57957 44.3964 2.37961 43.8919 3.32325 43.8919C3.6925 43.8919 4.20535 43.9981 4.86179 44.2105C5.51824 44.3698 5.99005 44.4495 6.27725 44.4495C7.385 44.4495 7.93887 42.6439 7.93887 39.0327V16.9673C7.93887 15.2679 7.89785 14.1792 7.81579 13.7013C7.61065 12.3205 7.0978 11.6302 6.27725 11.6302C5.94903 11.6302 5.45669 11.7364 4.80025 11.9488C4.18483 12.1081 3.6925 12.1878 3.32325 12.1878C2.37961 12.1878 1.57957 11.6833 0.923125 10.6743C0.307708 9.66525 0 8.41726 0 6.9303C0 5.17781 0.410278 3.77051 1.23083 2.7084C2.05139 1.59317 3.11811 1.03556 4.431 1.03556C4.47203 1.03556 4.53357 1.03556 4.61562 1.03556C4.69768 1.08867 4.77974 1.11523 4.86179 1.11523C5.84646 1.11523 7.34397 1.24799 9.35433 1.51352C11.3647 1.77905 12.8827 1.91181 13.9084 1.91181C15.8777 1.91181 18.0317 1.8056 20.3703 1.59318C23.3243 1.32765 25.0064 1.19488 25.4167 1.19488C29.8887 1.19488 33.4992 2.84116 36.248 6.13371C39.0379 9.37316 40.4329 13.6482 40.4329 18.9587C40.4329 24.4817 38.9969 28.863 36.125 32.1024C33.294 35.3419 29.4169 36.9616 24.4936 36.9616C24.0833 36.9616 23.3038 36.935 22.155 36.8819L20.4318 36.8023ZM18.7702 23.34C18.7702 24.8269 18.8728 25.7563 19.0779 26.128C19.2831 26.4467 19.8369 26.6325 20.7395 26.6856L21.7242 26.7653C26.5655 27.137 28.9861 24.6676 28.9861 19.357C28.9861 14.2589 26.8116 11.7098 22.4627 11.7098C21.396 11.7098 20.6575 11.7895 20.2472 11.9488C19.5087 12.2143 19.0574 12.8516 18.8933 13.8606C18.8112 14.3917 18.7702 15.1882 18.7702 16.2504V23.34Z" fill="#727272"/>
<path d="M65.0115 11.1522C63.6576 11.1522 62.755 11.3115 62.3037 11.6302C61.6883 12.1081 61.3806 13.1702 61.3806 14.8165V19.2774C61.3806 20.1802 61.4626 20.8706 61.6268 21.3485C61.8319 21.7734 62.3242 21.9858 63.1038 21.9858C64.909 21.9858 65.8116 21.1361 65.8116 19.4367V18.4011C65.7706 18.0825 65.75 17.6842 65.75 17.2063C65.75 14.9758 66.7552 13.8606 68.7656 13.8606C70.858 13.8606 71.9042 15.2148 71.9042 17.9232C71.9042 18.6667 71.8632 19.4898 71.7811 20.3926C71.617 22.1451 71.535 23.7648 71.535 25.2518C71.535 26.6325 71.617 28.385 71.7811 30.5092C71.9452 32.6335 72.0273 34.1204 72.0273 34.9701C72.0273 38.1034 70.9401 39.67 68.7656 39.67C66.7142 39.67 65.6885 38.3158 65.6885 35.6074C65.6885 35.3419 65.6885 35.2091 65.6885 35.2091C65.6885 34.9436 65.7295 34.3063 65.8116 33.2973C65.8116 32.0228 64.9295 31.3855 63.1653 31.3855C61.9755 31.3855 61.3806 32.2352 61.3806 33.9346V39.909C61.3806 41.7677 61.6268 43.0422 62.1191 43.7326C62.6525 44.3698 63.6166 44.6885 65.0115 44.6885H68.581C71.2067 44.6885 73.0325 44.3964 74.0582 43.8122C75.1249 43.2281 75.6583 42.1925 75.6583 40.7055C75.6583 39.9621 75.5967 39.0858 75.4736 38.0768C75.3505 37.0147 75.289 36.1385 75.289 35.4481C75.289 33.4832 75.7198 31.9431 76.5814 30.8279C77.443 29.7127 78.6123 29.1551 80.0893 29.1551C83.0843 29.1551 84.5818 31.2793 84.5818 35.5277C84.5818 36.9085 84.5202 38.3689 84.3972 39.909C84.192 42.458 84.0895 44.0512 84.0895 44.6885C84.0895 45.2726 84.192 46.4144 84.3972 48.1138C84.5202 49.1228 84.5818 50.1584 84.5818 51.2205C84.5818 53.7164 83.3715 54.9644 80.9508 54.9644C80.1713 54.9644 78.8789 54.8848 77.0737 54.7255C74.0787 54.4599 69.2989 54.2741 62.7345 54.1678C62.7345 54.1678 60.9088 54.1678 57.2573 54.1678C55.2059 54.1678 53.5033 54.2475 52.1493 54.4068L47.4722 54.9644C47.4311 54.9644 47.3491 54.991 47.226 55.0441C47.1029 55.0441 47.0004 55.0441 46.9183 55.0441C45.6464 55.0441 44.6002 54.4865 43.7797 53.3713C43.0001 52.256 42.6104 50.8487 42.6104 49.1494C42.6104 47.6624 42.9181 46.4144 43.5335 45.4054C44.19 44.3964 45.0105 43.8919 45.9952 43.8919C46.3234 43.8919 46.8157 43.9981 47.4722 44.2105C48.1286 44.3698 48.6004 44.4495 48.8876 44.4495C49.9954 44.4495 50.5493 42.6439 50.5493 39.0327V16.9673C50.5493 13.4092 49.9954 11.6302 48.8876 11.6302C48.6415 11.6302 48.1491 11.7364 47.4106 11.9488C46.8773 12.1081 46.4055 12.1878 45.9952 12.1878C45.0515 12.1878 44.2515 11.6833 43.5951 10.6743C42.9386 9.66525 42.6104 8.41726 42.6104 6.9303C42.6104 3.05358 44.1079 1.11523 47.1029 1.11523C47.8004 1.11523 49.2159 1.22143 51.3493 1.43385C54.5495 1.75249 57.6471 1.91181 60.6421 1.91181C60.9293 1.91181 63.3909 1.83215 68.0271 1.67283C71.3914 1.56662 73.6069 1.46041 74.6736 1.3542C76.4378 1.19488 78.284 1.11523 80.2123 1.11523C82.5099 1.11523 83.6587 2.41632 83.6587 5.01849C83.6587 5.86819 83.5766 7.11617 83.4125 8.76245C83.2894 10.4087 83.2279 11.6567 83.2279 12.5064C83.2279 13.3561 83.3099 14.5775 83.474 16.1707C83.6792 17.7108 83.7818 18.8791 83.7818 19.6757C83.7818 21.2157 83.3304 22.5168 82.4278 23.5789C81.5663 24.6411 80.479 25.1721 79.1661 25.1721C76.089 25.1721 74.5505 23.1275 74.5505 19.0384C74.5505 18.348 74.6326 17.3921 74.7967 16.1707C75.0018 14.9493 75.1044 14.0465 75.1044 13.4623C75.1044 12.294 74.6326 11.5771 73.6889 11.3115C73.3607 11.2053 72.4991 11.1522 71.1042 11.1522H65.0115Z" fill="#727272"/>
<path d="M107.358 41.1038C107.358 42.2191 107.461 43.0688 107.666 43.6529C107.912 44.184 108.425 44.4495 109.204 44.4495C109.656 44.4495 110.312 44.3698 111.174 44.2105C112.035 43.9981 112.692 43.8919 113.143 43.8919C115.564 43.8919 116.774 45.6975 116.774 49.3087C116.774 51.0081 116.343 52.3888 115.481 53.4509C114.661 54.4599 113.553 54.9644 112.158 54.9644C111.707 54.9644 111.03 54.9113 110.127 54.8051C109.266 54.752 108.343 54.6724 107.358 54.5661C106.414 54.4599 105.491 54.3803 104.589 54.3272C103.686 54.221 103.03 54.1678 102.619 54.1678C99.3781 54.1678 97.019 54.3006 95.542 54.5661C94.106 54.8317 93.2239 54.9644 92.8957 54.9644C91.5828 54.9644 90.5161 54.4334 89.6955 53.3713C88.916 52.3091 88.5262 50.9018 88.5262 49.1494C88.5262 47.6093 88.8339 46.3613 89.4494 45.4054C90.1058 44.3964 90.9263 43.8919 91.911 43.8919C92.2392 43.8919 92.7316 43.9981 93.388 44.2105C94.0445 44.3698 94.5163 44.4495 94.8035 44.4495C95.4599 44.4495 95.8907 44.0778 96.0958 43.3343C96.342 42.5908 96.4651 41.1569 96.4651 39.0327V16.9673C96.4651 14.8431 96.342 13.4358 96.0958 12.7454C95.8907 12.0019 95.4599 11.6302 94.8035 11.6302C94.4753 11.6302 93.9829 11.7364 93.3265 11.9488C92.7111 12.1081 92.2187 12.1878 91.8495 12.1878C90.9058 12.1878 90.1058 11.6833 89.4494 10.6743C88.8339 9.66525 88.5262 8.41726 88.5262 6.9303C88.5262 3.05358 90.0443 1.11523 93.0803 1.11523C93.6137 1.11523 94.4342 1.16833 95.542 1.27454C96.6497 1.32765 97.819 1.4073 99.0499 1.51352C100.281 1.61973 101.47 1.72594 102.619 1.83215C103.768 1.88526 104.691 1.91181 105.389 1.91181C106.866 1.91181 108.589 1.88526 110.558 1.83215C112.568 1.72594 114.558 1.61973 116.528 1.51352C118.538 1.3542 120.425 1.24799 122.19 1.19488C123.954 1.08867 125.349 1.03556 126.374 1.03556C127.318 1.03556 128.056 1.32765 128.59 1.91181C129.164 2.49597 129.451 3.37222 129.451 4.54054C129.451 5.12471 129.41 5.76197 129.328 6.45235C129.287 7.14272 129.226 7.8331 129.144 8.52347C129.062 9.21385 128.98 9.87767 128.898 10.5149C128.857 11.0991 128.836 11.6036 128.836 12.0284C128.836 12.4002 128.857 12.9312 128.898 13.6216C128.98 14.312 129.062 15.0555 129.144 15.8521C129.267 16.5955 129.349 17.3125 129.39 18.0028C129.472 18.6932 129.513 19.1977 129.513 19.5164C129.513 21.3751 129.082 22.8886 128.221 24.0569C127.359 25.2252 126.231 25.8094 124.836 25.8094C123.441 25.8094 122.333 25.2252 121.513 24.0569C120.733 22.8886 120.343 21.322 120.343 19.357C120.343 19.1977 120.364 18.8791 120.405 18.4011C120.446 17.8701 120.487 17.339 120.528 16.808C120.61 16.2238 120.671 15.6662 120.713 15.1351C120.754 14.6041 120.774 14.1792 120.774 13.8606C120.774 12.055 119.748 11.1522 117.697 11.1522H110.989C110.209 11.1522 109.573 11.2053 109.081 11.3115C108.589 11.3646 108.199 11.5505 107.912 11.8691C107.666 12.1878 107.502 12.6657 107.42 13.303C107.337 13.9403 107.296 14.8431 107.296 16.0114L107.358 41.1038Z" fill="#727272"/>
<path d="M150.989 42.697C150.989 43.2812 151.112 43.706 151.358 43.9715C151.604 44.2371 151.891 44.3698 152.219 44.3698C152.466 44.3698 152.671 44.3433 152.835 44.2902C153.04 44.2371 153.245 44.2105 153.45 44.2105C155.255 44.2105 156.158 45.8302 156.158 49.0697C156.158 50.8222 155.768 52.256 154.989 53.3713C154.25 54.4334 153.286 54.9644 152.096 54.9644C151.809 54.9644 151.358 54.9113 150.742 54.8051C150.127 54.752 149.471 54.6724 148.773 54.5661C148.076 54.4599 147.399 54.3803 146.742 54.3272C146.127 54.221 145.655 54.1678 145.327 54.1678C143.111 54.1678 141.265 54.3006 139.788 54.5661C138.311 54.8317 137.244 54.9644 136.588 54.9644C135.275 54.9644 134.208 54.4334 133.388 53.3713C132.608 52.3091 132.218 50.9018 132.218 49.1494C132.218 47.6624 132.547 46.4144 133.203 45.4054C133.859 44.3964 134.66 43.8919 135.603 43.8919C135.931 43.8919 136.403 43.9981 137.019 44.2105C137.675 44.3698 138.167 44.4495 138.496 44.4495C139.603 44.4495 140.157 42.6439 140.157 39.0327V16.9673C140.157 13.4092 139.603 11.6302 138.496 11.6302C138.167 11.6302 137.675 11.7364 137.019 11.9488C136.403 12.1081 135.911 12.1878 135.542 12.1878C134.598 12.1878 133.798 11.6833 133.142 10.6743C132.526 9.66525 132.218 8.41726 132.218 6.9303C132.218 5.17781 132.629 3.77051 133.449 2.7084C134.27 1.64628 135.337 1.11523 136.649 1.11523C136.731 1.11523 137.039 1.16833 137.573 1.27454C138.147 1.32765 138.824 1.4073 139.603 1.51352C140.424 1.61973 141.306 1.72594 142.25 1.83215C143.193 1.88526 144.116 1.91181 145.019 1.91181C146.578 1.91181 148.014 1.77905 149.327 1.51352C150.64 1.24799 151.563 1.11523 152.096 1.11523C153.327 1.11523 154.312 1.67284 155.05 2.78805C155.789 3.85017 156.158 5.25747 156.158 7.00996C156.158 10.1963 155.255 11.7895 153.45 11.7895C153.081 11.7364 152.814 11.7098 152.65 11.7098C152.527 11.7098 152.384 11.7098 152.219 11.7098C151.522 11.7098 151.112 12.2674 150.989 13.3826V27.2432L163.112 14.4979C163.358 14.2323 163.523 13.9668 163.605 13.7013C163.687 13.3826 163.728 13.1437 163.728 12.9844C163.728 12.4002 163.605 12.055 163.358 11.9488C163.153 11.7895 162.928 11.7098 162.682 11.7098C162.517 11.7098 162.353 11.7364 162.189 11.7895C162.025 11.7895 161.758 11.7895 161.389 11.7895C159.584 11.7895 158.681 10.1698 158.681 6.9303C158.681 5.17781 159.051 3.77051 159.789 2.7084C160.569 1.64628 161.574 1.11523 162.805 1.11523C163.133 1.11523 163.625 1.16833 164.282 1.27454C164.979 1.32765 165.718 1.4073 166.497 1.51352C167.277 1.61973 167.995 1.72594 168.651 1.83215C169.349 1.88526 169.861 1.91181 170.19 1.91181C170.928 1.91181 171.708 1.88526 172.528 1.83215C173.39 1.72594 174.19 1.61973 174.928 1.51352C175.708 1.3542 176.385 1.24799 176.959 1.19488C177.575 1.08867 178.026 1.03556 178.313 1.03556C179.626 1.03556 180.672 1.59317 181.452 2.7084C182.272 3.77051 182.683 5.17781 182.683 6.9303C182.683 8.41726 182.354 9.66525 181.698 10.6743C181.082 11.6833 180.303 12.1878 179.359 12.1878C178.99 12.1878 178.477 12.1081 177.821 11.9488C177.205 11.7364 176.734 11.6302 176.405 11.6302C175.749 11.6302 175.298 11.9753 175.051 12.6657C174.805 13.3561 174.682 14.7899 174.682 16.9673V39.0327C174.682 42.6439 175.236 44.4495 176.344 44.4495C176.672 44.4495 177.164 44.3698 177.821 44.2105C178.477 43.9981 178.97 43.8919 179.298 43.8919C180.241 43.8919 181.041 44.3964 181.698 45.4054C182.354 46.4144 182.683 47.6624 182.683 49.1494C182.683 50.9018 182.272 52.3357 181.452 53.4509C180.672 54.513 179.626 55.0441 178.313 55.0441C178.231 55.0441 177.821 54.991 177.082 54.8848C176.344 54.8317 175.523 54.7255 174.621 54.5661C173.759 54.4599 172.897 54.3803 172.036 54.3272C171.215 54.221 170.661 54.1678 170.374 54.1678C168.405 54.1678 166.784 54.3006 165.512 54.5661C164.241 54.8317 163.317 54.9644 162.743 54.9644C161.553 54.9644 160.569 54.4334 159.789 53.3713C159.051 52.256 158.681 50.8222 158.681 49.0697C158.681 45.8302 159.584 44.2105 161.389 44.2105C161.717 44.2105 161.964 44.2371 162.128 44.2902C162.292 44.3433 162.476 44.3698 162.682 44.3698C163.256 44.3698 163.605 44.0512 163.728 43.4139C163.851 42.7767 163.912 41.6083 163.912 39.909V28.7568L151.789 41.0242C151.255 41.5552 150.989 42.1128 150.989 42.697Z" fill="#727272"/>
<path d="M205.234 56C198.998 56 194.177 53.5571 190.772 48.6714C187.367 43.7857 185.664 36.8554 185.664 27.8805C185.664 19.2243 187.346 12.4267 190.71 7.48791C194.116 2.49597 198.793 0 204.742 0C210.978 0 215.84 2.41631 219.327 7.24893C222.815 12.0816 224.558 18.826 224.558 27.4822C224.558 36.4571 222.856 43.467 219.45 48.5121C216.086 53.504 211.347 56 205.234 56ZM205.173 11.1522C199.839 11.1522 197.172 16.7814 197.172 28.0398C197.172 33.4035 197.685 37.3864 198.711 39.9886C199.983 43.2281 202.116 44.8478 205.111 44.8478C210.404 44.8478 213.05 39.3779 213.05 28.4381C213.05 22.3841 212.414 18.0028 211.142 15.2945C209.911 12.533 207.922 11.1522 205.173 11.1522Z" fill="#727272"/>
<path d="M246.306 16.091V21.6671H259.23V16.091C259.23 14.4448 259.209 13.542 259.168 13.3826C259.045 12.2674 258.655 11.7098 257.999 11.7098C257.712 11.7098 257.466 11.7364 257.26 11.7895H256.707C254.901 11.7895 253.999 10.1698 253.999 6.9303C253.999 5.17781 254.368 3.77051 255.107 2.7084C255.886 1.64628 256.891 1.11523 258.122 1.11523C258.943 1.11523 260.173 1.24799 261.815 1.51352C263.456 1.77905 264.687 1.91181 265.507 1.91181C266.574 1.91181 267.907 1.8056 269.507 1.59318C272.297 1.22143 273.672 1.03556 273.631 1.03556C274.943 1.03556 275.99 1.59317 276.769 2.7084C277.59 3.77051 278 5.17781 278 6.9303C278 8.41726 277.672 9.66525 277.015 10.6743C276.4 11.6833 275.62 12.1878 274.677 12.1878C274.308 12.1878 273.795 12.1081 273.138 11.9488C272.523 11.7364 272.051 11.6302 271.723 11.6302C270.902 11.6302 270.369 12.294 270.123 13.6216C270.041 14.1527 270 15.2679 270 16.9673V39.0327C270 42.6439 270.553 44.4495 271.661 44.4495C271.989 44.4495 272.482 44.3698 273.138 44.2105C273.795 43.9981 274.287 43.8919 274.615 43.8919C275.559 43.8919 276.359 44.3964 277.015 45.4054C277.672 46.4144 278 47.6624 278 49.1494C278 50.9018 277.59 52.3357 276.769 53.4509C275.99 54.513 274.943 55.0441 273.631 55.0441C273.59 55.0441 273.507 55.0441 273.384 55.0441C273.302 54.991 273.22 54.9644 273.138 54.9644C272.318 54.9644 271.087 54.8317 269.446 54.5661C267.805 54.3006 266.553 54.1678 265.692 54.1678C264.092 54.1678 262.738 54.2741 261.63 54.4865C259.948 54.8051 258.758 54.9644 258.06 54.9644C256.871 54.9644 255.886 54.4334 255.107 53.3713C254.368 52.256 253.999 50.8222 253.999 49.0697C253.999 45.8302 254.901 44.2105 256.707 44.2105C256.953 44.2105 257.137 44.2371 257.26 44.2902C257.384 44.2902 257.527 44.2902 257.691 44.2902C257.855 44.3433 257.958 44.3698 257.999 44.3698C258.655 44.3698 259.045 43.7857 259.168 42.6174C259.209 42.0332 259.23 41.1304 259.23 39.909V32.0228H246.306V39.909C246.306 41.7146 246.306 42.6439 246.306 42.697C246.429 43.8122 246.839 44.3698 247.537 44.3698C247.578 44.3698 247.68 44.3433 247.845 44.2902C248.009 44.2902 248.132 44.2902 248.214 44.2902C248.337 44.2371 248.522 44.2105 248.768 44.2105C250.573 44.2105 251.476 45.8302 251.476 49.0697C251.476 50.8222 251.086 52.256 250.306 53.3713C249.568 54.4334 248.604 54.9644 247.414 54.9644C246.675 54.9644 245.547 54.8317 244.029 54.5661C242.552 54.3006 241.424 54.1678 240.644 54.1678C238.88 54.1678 237.341 54.2741 236.029 54.4865C234.059 54.8051 232.685 54.9644 231.905 54.9644C230.592 54.9644 229.526 54.4334 228.705 53.3713C227.926 52.3091 227.536 50.9018 227.536 49.1494C227.536 47.6624 227.864 46.4144 228.521 45.4054C229.177 44.3964 229.977 43.8919 230.921 43.8919C231.249 43.8919 231.721 43.9981 232.336 44.2105C232.993 44.3698 233.485 44.4495 233.813 44.4495C234.921 44.4495 235.475 42.6439 235.475 39.0327V16.9673C235.475 13.4092 234.921 11.6302 233.813 11.6302C233.485 11.6302 232.993 11.7364 232.336 11.9488C231.721 12.1081 231.228 12.1878 230.859 12.1878C229.915 12.1878 229.115 11.6833 228.459 10.6743C227.844 9.66525 227.536 8.41726 227.536 6.9303C227.536 5.17781 227.946 3.77051 228.767 2.7084C229.587 1.64628 230.654 1.11523 231.967 1.11523C232.377 1.11523 233.69 1.27454 235.906 1.59318C237.383 1.8056 238.86 1.91181 240.337 1.91181C241.608 1.91181 242.798 1.8056 243.906 1.59318C245.547 1.27454 246.716 1.11523 247.414 1.11523C248.645 1.11523 249.629 1.67284 250.368 2.78805C251.106 3.85017 251.476 5.25747 251.476 7.00996C251.476 10.1963 250.573 11.7895 248.768 11.7895H248.214C248.05 11.7364 247.824 11.7098 247.537 11.7098C246.839 11.7098 246.429 12.2674 246.306 13.3826C246.306 13.4358 246.306 14.3385 246.306 16.091Z" fill="#727272"/>
</svg>
