<svg width="123" height="108" viewBox="0 0 123 108" fill="none" xmlns="http://www.w3.org/2000/svg">
<path d="M30.6718 13.9455L46.8595 30.279L62.0145 15.3962L46.8595 0L30.6718 13.9455Z" fill="#D9D9D9"/>
<path d="M0 46.0615L30.6716 75.866L46.343 60.9644L14.3169 30.2789L0 46.0615Z" fill="#4821D6"/>
<path d="M60.4906 79.0247L109.666 30.2789L123 46.0615L71.3901 98.1375L60.4906 79.0247Z" fill="#C3C2C3"/>
<path d="M0 46.0616L46.8593 0H16.6507L0 15.7274V46.0616Z" fill="#F2EFEF"/>
<path d="M77.1047 92.1246L46.3432 60.9646L30.6718 75.8662L62.0146 108L77.1047 92.1246Z" fill="#E22B39"/>
<path d="M46.8594 30.279H77.1047L91.746 15.1389L77.1047 0L46.8594 30.279Z" fill="#C3C2C3"/>
<path d="M123 46.0616L77.1046 0H108.331L123 15.1389V46.0616Z" fill="#D9D9D9"/>
</svg>
