<svg width="61" height="75" viewBox="0 0 61 75" fill="none" xmlns="http://www.w3.org/2000/svg">
<path fill-rule="evenodd" clip-rule="evenodd" d="M58.4844 67C57.3699 68.3807 55.6256 68.4964 53.958 68.5358L37.4183 68.5788C34.259 68.5871 32.3268 71.9415 30.4725 74C28.5654 71.9964 27.3443 68.8329 24.2413 68.5668C18.5537 68.08 12.6865 68.7995 6.96416 68.506C3.83962 68.2351 1.26935 67.0931 1.01077 63.6862L1 1H60L59.9952 59.5465C59.9509 61.8974 59.8887 64.9952 58.4844 67Z" fill="#EFEFEF" stroke="black" stroke-miterlimit="22.9256"/>
<path fill-rule="evenodd" clip-rule="evenodd" d="M8.02024 24.381C8.84268 24.3488 9.65792 24.3392 10.4313 24.5039C10.4444 23.9609 10.1823 22.9394 10.4696 22.8738C11.9409 22.7187 12.9285 22.4227 13.3571 21.8559C14.0287 20.9669 15.8017 20.801 17.9146 20.7974C19.0758 19.7664 19.8851 20.0779 20.3616 21.4013C22.107 21.2199 22.6038 21.8237 21.852 23.2127C22.8995 24.486 23.941 26.1781 25.2328 28.7282C26.8561 29.1686 28.6626 29.955 30.4332 30.7903C31.4962 31.3845 32.5617 31.4597 33.6235 31.1662C37.2234 30.1721 40.6436 29.7915 43.7717 30.3523C45.431 30.6495 46.1624 30.338 46.3013 29.77C48.0276 22.7449 48.6189 22.832 49.4605 20.4227C50.204 18.2939 50.714 17.5707 51.9171 17.0993C53.4363 16.5039 54.7172 16.3523 55.9251 16.4908C54.7435 19.5862 54.0863 22.6352 54.2336 25.7402C54.3545 28.3189 52.0093 31.9192 50.4302 32.6686C49.3001 33.2044 49.1182 33.6554 49.5479 34.27C50.2339 35.2533 50.459 36.6602 50.4626 38.6865C50.4697 42.6662 52.1122 43.9573 54.4933 45.085C54.6394 45.8153 54.7004 46.6996 54.6011 47.48C53.4399 48.3774 53.0759 50.2378 52.7012 52.2664C51.9135 51.7354 51.1114 51.0444 50.4709 50.1196C48.8751 50.5015 47.7091 51.0063 47.4865 51.7795C47.1453 51.0886 47.5751 50.2867 47.5092 49.0444C46.749 48.9359 45.9876 48.9573 45.2274 49.4382C44.9916 48.6996 45.4932 48.1399 47.071 47.8428C47.6289 47.2951 48.2071 46.8941 48.8332 46.7557C49.263 46.6602 49.6605 46.3249 50.0507 45.8571C48.4597 45.6888 46.7789 45.2211 44.9425 44.2199C44.6612 45.6841 43.5802 46.2151 41.6755 45.9657C41.0063 45.8774 40.8914 46.1626 41.3439 46.6662C42.82 48.3428 43.2593 49.2044 42.1376 49.2855C39.9852 49.4418 38.3367 50.2008 37.3766 51.5993C35.7533 51.6137 34.5238 51.8034 34.27 52.5015C34.0545 51.8953 35.2098 50.6554 33.6954 50.6113C32.8478 50.5874 32.0529 50.8452 31.2592 51.6996C31.2867 50.9955 31.5345 50.301 31.8841 49.5886C32.4863 48.3655 31.8925 48.3511 30.6654 49.0337C30.7456 48.1292 31.1945 47.6912 32.0122 47.7199C32.5641 47.5301 32.9328 46.9717 33.669 47.1495C35.2038 47.628 36.2177 47.7211 36.456 47.2807C36.8738 46.511 35.9628 45.5647 35.4516 44.9573C34.7692 44.1447 35.0924 43.3619 35.794 42.0588C34.6651 42.5397 33.2704 43.0087 31.8961 43.2485C28.9463 43.7628 26.3844 43.9192 24.5121 43.3106C24.1889 43.6757 23.9159 43.8941 23.6908 43.9657L12.1588 44.5445C11.1663 45.3857 9.9213 46.0206 8.68465 45.9299L7.88616 46.7318C7.64554 46.4728 7.63596 45.943 7.83708 45.1447C7.2828 45.2366 6.74887 45.6077 6.24367 46.3869C6.11917 45.4144 6.31311 44.6745 6.72732 44.0934C6.5286 43.5444 6.1096 43.5588 5.47032 44.1375C5.55652 42.3296 6.75606 41.7604 8.06214 41.8738C10.8096 42.1137 12.7968 41.8416 14.1652 41.5826C17.8823 40.8786 17.1101 40.1984 15.9681 39.4991C14.1927 39.5934 11.8331 39.8917 9.8339 40.313C8.93126 40.739 8.0394 40.9752 7.27083 41.0098C6.67825 41.227 6.22692 41.4597 5.9863 41.6996L5.97432 40.8452L5.63673 41.023L5.29913 41.202C5.19737 40.2533 5.58165 39.9383 5.58644 39.091C5.55292 38.412 5.92405 37.9478 6.56931 37.4967C7.369 36.9371 11.723 36.8309 14.3519 36.4812L16.2865 33.3774L14.316 28.8165L11.4417 27.4251C11.1891 26.8273 11.1208 25.7867 10.6851 25.6292L9.51308 26.4359L10.1835 25.4669L8.47275 26.1053L9.75848 25.1101L7.98313 25.4394L9.39576 24.7604L8.02024 24.381ZM12.7801 24.8177C13.6875 24.486 14.2585 24.554 14.9553 24.6113L13.7953 25.0922C14.6692 25.1375 15.3851 25.2246 15.8699 25.3762C15.5419 25.5146 14.8164 25.5218 14.2897 25.5934L16.1872 26.2748L14.1592 26.1793L15.4713 27.2521C14.5423 26.8726 13.6229 26.4466 12.7286 25.8917C12.6304 25.5838 12.7023 25.159 12.7801 24.8177ZM14.6728 22.3965C14.8284 22.418 14.9242 22.6638 14.8859 22.9454C14.8475 23.2258 14.6895 23.4383 14.5339 23.4168C14.3783 23.3965 14.2825 23.1495 14.3208 22.869C14.3591 22.5874 14.5171 22.375 14.6728 22.3965ZM22.0125 32.8141C22.9618 32.3535 23.7698 32.1065 24.4833 32.1542L24.0272 32.8141C23.3951 32.8547 22.7403 33.1041 22.0759 33.449L22.6817 32.8666L22.0125 32.8141ZM21.8472 34.0194C22.5619 33.6554 23.309 33.3595 24.0907 33.1316C24.2332 33.1435 24.2128 33.2449 24.1278 33.4108C23.2874 33.6244 22.6158 33.9657 21.9107 34.3488C21.8269 34.2521 21.7922 34.1805 21.8472 34.0194ZM21.8724 34.8058C22.4003 34.3905 22.9283 34.1554 23.4562 34.0445C23.5747 34.1757 23.5244 34.307 23.3042 34.4383L22.0376 35.0218C21.8305 35.0516 21.7886 34.8905 21.8724 34.8058ZM22.1513 35.554L22.8109 35.3643L22.4805 35.6936L21.9741 35.8082L22.1513 35.554ZM42.4824 35.5278L43.5107 36.7008L43.4964 37.1316L42.3184 35.7951L42.4824 35.5278ZM42.0047 35.9884L43.3623 37.6375L43.3168 38.0385L41.9006 36.2998L42.0047 35.9884ZM41.5726 36.6125L43.1983 38.3058V38.7223L41.5139 36.9239L41.5726 36.6125ZM41.3643 37.2211L43.0343 39.227L42.9445 39.5695L41.2302 37.5182L41.3643 37.2211Z" fill="#2C2C2B"/>
<path fill-rule="evenodd" clip-rule="evenodd" d="M8.41901 29.5125C8.90146 28.0579 9.75382 26.7846 11.7926 26.3502C12.2894 26.2452 12.5563 26.7667 12.7982 26.6545C12.9574 26.5805 13.0543 26.3228 13.2782 26.435C14.2563 26.923 14.8632 27.6223 15.3588 28.3383C16.4219 29.8765 17.242 31.4481 17.2228 33.1832L18.56 35.2822C18.6306 37.0006 18.9203 38.3025 19.4686 39.75C19.6458 40.8801 19.3789 41.1951 18.6702 40.6927C19.5764 44.892 19.5393 47.9302 18.1242 49.2715C15.9778 47.6724 15.6031 43.6677 16.453 37.7118C16.6649 36.2249 16.3872 35.034 15.9766 34.0913C16.0783 34.7906 15.8976 35.5364 15.5887 36.3037C16.2136 37.5137 15.9802 39.3574 15.0344 41.7261C15.0069 40.4827 14.8165 39.361 14.5161 38.3216C14.0408 36.756 14.1342 35.4362 14.4119 34.0054C13.0496 32.3968 12.5994 30.8383 13.2172 29.4338C13.2351 28.3634 12.7742 28.3156 11.8357 29.2882L11.8428 31.1903C12.4642 32.7452 12.7227 34.0459 12.3636 34.8729C11.7554 36.2763 11.4777 37.0412 11.5555 38.386C11.6274 39.6187 11.3017 40.5066 10.8001 40.1581C10.3213 39.8252 10.2075 39.1868 10.423 38.2941C10.6601 36.2619 10.6146 35.0257 10.4422 34.151C10.1645 34.6891 10.0902 35.9266 9.60777 36.8359C9.13729 37.7226 8.82245 37.9206 8.58422 37.392C8.41901 36.756 8.04789 36.2572 7.47207 35.8944C7.46129 35.4672 7.21109 35.176 6.72266 35.0221C7.8767 33.0078 7.81446 31.3371 8.41901 29.5125Z" fill="#E21C2A"/>
<path fill-rule="evenodd" clip-rule="evenodd" d="M8.43799 37.2868C8.61636 37.7069 8.85219 37.9026 9.10479 37.6734C9.15507 38.245 9.01501 38.9383 8.49425 39.2772C8.04891 39.5672 7.79272 39.2438 7.95553 38.6663C8.07764 38.2331 8.27877 37.9002 8.43799 37.2868Z" fill="#E21C2A"/>
<path d="M48.0381 26.882L49.7033 25.9501" stroke="white" stroke-width="0.5452" stroke-miterlimit="22.9256"/>
<path d="M48.1755 25.9497C48.9585 25.4795 49.7414 25.1012 50.5255 24.8124" stroke="white" stroke-width="0.5452" stroke-miterlimit="22.9256"/>
<path d="M48.7017 24.4263C49.4846 23.9573 50.2675 23.5778 51.0505 23.2902" stroke="white" stroke-width="0.5452" stroke-miterlimit="22.9256"/>
<path d="M48.9268 22.9944C49.7097 22.5254 50.4926 22.1459 51.2756 21.8583" stroke="white" stroke-width="0.5452" stroke-miterlimit="22.9256"/>
<path d="M49.6807 21.5398C50.4636 21.0709 51.2465 20.6914 52.0295 20.4038" stroke="white" stroke-width="0.5452" stroke-miterlimit="22.9256"/>
<path d="M50.1602 20.4485C50.9431 19.9783 51.726 19.6001 52.509 19.3113" stroke="white" stroke-width="0.5452" stroke-miterlimit="22.9256"/>
<path d="M50.3647 19.4252C51.1477 18.9562 51.7941 18.5767 52.5771 18.2891" stroke="white" stroke-width="0.5452" stroke-miterlimit="22.9256"/>
<path d="M51.7647 21.7712C51.384 21.0922 50.8788 20.2676 50.2156 19.7628" stroke="white" stroke-width="0.521" stroke-miterlimit="22.9256"/>
<path d="M52.2002 21.1121C51.8195 20.4331 51.3143 19.6992 50.6511 19.1932" stroke="white" stroke-width="0.521" stroke-miterlimit="22.9256"/>
<path d="M52.3612 20.2709C51.9793 19.5919 51.5424 19.1086 50.8792 18.6026" stroke="white" stroke-width="0.521" stroke-miterlimit="22.9256"/>
<path d="M52.6805 19.7018C52.2987 19.024 51.9982 18.6541 51.335 18.1481" stroke="white" stroke-width="0.521" stroke-miterlimit="22.9256"/>
<path d="M51.4023 22.135C51.0204 21.456 50.7199 21.086 50.0579 20.5801" stroke="white" stroke-width="0.521" stroke-miterlimit="22.9256"/>
<path d="M51.0836 22.7711C50.7018 22.0921 50.4025 21.7222 49.7393 21.2174" stroke="white" stroke-width="0.521" stroke-miterlimit="22.9256"/>
<path d="M50.8334 23.4765C50.4515 22.7975 50.151 22.4276 49.4878 21.9216" stroke="white" stroke-width="0.521" stroke-miterlimit="22.9256"/>
<path d="M50.7167 24.2485C50.336 23.5707 49.8764 22.9501 49.2131 22.4454" stroke="white" stroke-width="0.521" stroke-miterlimit="22.9256"/>
<path d="M50.5129 24.976C50.034 24.3292 49.7228 23.9104 49.1458 23.377" stroke="white" stroke-width="0.521" stroke-miterlimit="22.9256"/>
<path d="M50.1711 25.6577C49.6934 25.0121 49.381 24.5933 48.804 24.0587" stroke="white" stroke-width="0.521" stroke-miterlimit="22.9256"/>
<path d="M49.8966 26.2499C49.4178 25.6031 48.9689 25.1162 48.3918 24.5816" stroke="white" stroke-width="0.521" stroke-miterlimit="22.9256"/>
<path fill-rule="evenodd" clip-rule="evenodd" d="M14.6927 22.4046C15.0722 22.4046 15.3811 22.6731 15.3811 23.0048C15.3811 23.3366 15.0722 23.6051 14.6927 23.6051C14.312 23.6051 14.0032 23.3366 14.0032 23.0048C14.0032 22.6731 14.312 22.4046 14.6927 22.4046Z" fill="#E21C2A" stroke="#2C2C2B" stroke-width="0.1014" stroke-miterlimit="22.9256"/>
</svg>
