<svg width="150" height="124" viewBox="0 0 150 124" fill="none" xmlns="http://www.w3.org/2000/svg">
<path d="M148.294 123.868L0.648468 40.1041C0.249175 39.9057 0 39.4993 0 39.0516V1.17425C0 0.525697 0.526813 0 1.17419 0H104.726C105.209 0 105.642 0.295336 105.822 0.743064L149.913 122.382C150.311 123.385 149.26 124.35 148.294 123.868Z" fill="white"/>
<path d="M104.726 0H1.17419C0.526813 0 0 0.525697 0 1.17425V39.0516C0 39.4993 0.249175 39.9057 0.648468 40.1042L148.294 123.868C148.473 123.955 148.653 123.996 148.823 123.996C149.595 123.996 150.239 123.203 149.913 122.382L105.822 0.743064C105.642 0.295336 105.209 0 104.726 0ZM104.726 0.862381C104.856 0.862381 104.973 0.94035 105.012 1.03604L149.111 122.699C149.127 122.74 149.173 122.857 149.086 122.987C149.024 123.076 148.923 123.132 148.823 123.132C148.782 123.132 148.739 123.125 148.695 123.104L1.07382 39.3552L1.0549 39.3446L1.03367 39.3339C0.927352 39.2796 0.859933 39.1733 0.859933 39.0516V1.17425C0.859933 1.00296 1.00053 0.862381 1.17419 0.862381H104.726Z" fill="#7BC2E3"/>
<path d="M107.319 31.0353L149.886 122.32C150.328 123.272 149.404 124.281 148.419 123.923L14.885 75.3178C14.4183 75.1501 14.1088 74.7082 14.1088 74.2144V31.5314C14.1088 30.8793 14.6345 30.3548 15.2866 30.3548H106.253C106.708 30.3548 107.126 30.6194 107.319 31.0353Z" fill="#7BC2E3"/>
<path d="M20.788 65.5432C20.788 66.3843 20.4679 66.6525 19.8831 66.6525H19.0089V62.6773H19.8831C20.4679 62.6773 20.788 62.9455 20.788 63.783V65.5432ZM19.8831 61.001H17.166V72.7388H19.0089V68.3324H19.8831C21.7272 68.3324 22.6309 67.307 22.6309 65.4275V63.9C22.6309 62.0264 21.7272 61.001 19.8831 61.001ZM27.5145 70.0382C27.5145 70.8758 27.146 71.1959 26.5577 71.1959C25.9717 71.1959 25.6031 70.8758 25.6031 70.0382V63.6992C25.6031 62.8616 25.9717 62.5438 26.5577 62.5438C27.146 62.5438 27.5145 62.8616 27.5145 63.6992V70.0382ZM26.5577 60.8687C24.749 60.8687 23.7615 61.939 23.7615 63.8161V69.9213C23.7615 71.8008 24.749 72.8746 26.5577 72.8746C28.371 72.8746 29.3586 71.8008 29.3586 69.9213V63.8161C29.3586 61.939 28.371 60.8687 26.5577 60.8687ZM40.1313 60.8687C38.3251 60.8687 37.3847 61.939 37.3847 63.8161V69.9213C37.3847 71.8008 38.3251 72.8746 40.1313 72.8746C41.9459 72.8746 42.885 71.8008 42.885 69.9213V68.3619H41.1402V70.0382C41.1402 70.8758 40.7716 71.177 40.1857 71.177C39.5997 71.177 39.2287 70.8758 39.2287 70.0382V63.6992C39.2287 62.8616 39.5997 62.5438 40.1857 62.5438C40.7716 62.5438 41.1402 62.8616 41.1402 63.6992V64.9573H42.885V63.8161C42.885 61.939 41.9459 60.8687 40.1313 60.8687ZM33.387 60.8687C31.5748 60.8687 30.6357 61.939 30.6357 63.8161V69.9213C30.6357 71.8008 31.5748 72.8746 33.387 72.8746C35.198 72.8746 36.1371 71.8008 36.1371 69.9213V68.3619H34.3958V70.0382C34.3958 70.8758 34.0237 71.177 33.4354 71.177C32.8495 71.177 32.4809 70.8758 32.4809 70.0382V63.6992C32.4809 62.8616 32.8495 62.5438 33.4354 62.5438C34.0237 62.5438 34.3958 62.8616 34.3958 63.6992V64.9573H36.1371V63.8161C36.1371 61.939 35.198 60.8687 33.387 60.8687ZM46.5129 65.848L45.8408 68.4292V61.001H44.1962V72.7388H46.0935L47.6387 67.3578L48.39 64.4753V72.7388H50.0499V61.001H48.0238L46.5129 65.848ZM53.823 65.848L53.1496 68.4292V61.001H51.5065V72.7388H53.4025L54.943 67.3578L55.6966 64.4753V72.7388H57.3611V61.001H55.3304L53.823 65.848ZM34.8046 55.9543C34.8046 56.7919 34.4361 57.112 33.8501 57.112C33.2618 57.112 32.8932 56.7919 32.8932 55.9543V49.6188C32.8932 48.7776 33.2618 48.4599 33.8501 48.4599C34.4361 48.4599 34.8046 48.7776 34.8046 49.6188V55.9543ZM33.8501 46.7847C32.0392 46.7847 31.0492 47.855 31.0492 49.7345V55.8373C31.0492 57.7168 32.0392 58.7883 33.8501 58.7883C35.6588 58.7883 36.6487 57.7168 36.6487 55.8373V49.7345C36.6487 47.855 35.6588 46.7847 33.8501 46.7847ZM48.6429 46.917L46.2282 52.0287V46.917H44.3842V58.6525H46.2282V55.0506L46.7952 53.9767L48.5908 58.6525H50.4869L47.921 52.148L50.4869 46.917H48.6429ZM64.8284 58.6525H66.6701V46.917H64.8284V58.6525ZM53.3611 58.6525H55.2052V48.5933H57.1343V46.917H51.4296V48.5933H53.3611V58.6525ZM38.0297 58.6525H43.061V56.9785H39.8737V53.5396H42.4066V51.8633H39.8737V48.5933H43.061V46.917H38.0297V58.6525ZM61.9258 55.8704C61.9258 56.7103 61.6081 56.9785 61.021 56.9785H60.1503V53.0033H61.021C61.6081 53.0033 61.9258 53.2715 61.9258 54.109V55.8704ZM61.021 51.327H60.1503V46.917H58.3062V58.6525H61.021C62.8674 58.6525 63.7735 57.6294 63.7735 55.7535V54.226C63.7735 52.3488 62.8674 51.327 61.021 51.327ZM17.166 58.6525H19.0089V48.5933H21.1057V58.6525H22.983V46.917H17.166V58.6525ZM28.0781 51.4628C28.0781 52.298 27.7579 52.5662 27.1731 52.5662H26.3002V48.5933H27.1731C27.7579 48.5933 28.0781 48.8615 28.0781 49.6991V51.4628ZM27.1731 46.917H24.4585V58.6525H26.3002V54.2449H27.1731C29.0172 54.2449 29.9233 53.223 29.9233 51.3435V49.8196C29.9233 47.9401 29.0172 46.917 27.1731 46.917ZM69.4356 41.7014C69.4002 42.7918 69.1344 42.9087 68.2968 42.9087V44.5874H68.5791C70.4268 44.5874 71.1958 43.7499 71.262 41.601L71.4651 34.5094H73.0754V44.5673H74.9525V32.8331H69.7368L69.4356 41.7014ZM48.7315 35.5313C48.7315 34.6937 49.1035 34.3735 49.6883 34.3735C50.2742 34.3735 50.6417 34.6937 50.6417 35.5313V41.8703C50.6417 42.7079 50.2742 43.0257 49.6883 43.0257C49.1035 43.0257 48.7315 42.7079 48.7315 41.8703V35.5313ZM49.6883 44.7044C51.4981 44.7044 52.4858 43.6294 52.4858 41.7534V35.6482C52.4858 33.7711 51.4981 32.6996 49.6883 32.6996C47.8773 32.6996 46.8873 33.7711 46.8873 35.6482V41.7534C46.8873 43.6294 47.8773 44.7044 49.6883 44.7044ZM59.686 44.5673V32.8331H57.8089V37.8609H55.712V32.8331H53.8679V44.5673H55.712V39.5396H57.8089V44.5673H59.686ZM63.1272 40.8473L64.0168 34.9134L64.9039 40.8473H63.1272ZM62.7587 32.8331L60.8792 44.5673H62.5721L62.8922 42.4421H65.1568L65.4711 44.5673H67.3364L65.4569 32.8331H62.7587ZM87.1675 37.8609H85.0742V32.8331H83.2302V44.5673H85.0742V39.5396H87.1675V44.5673H89.0447V32.8331H87.1675V37.8609ZM105.399 34.5094V32.8331H100.366V44.5673H105.399V42.8922H102.212V39.4557H104.745V37.777H102.212V34.5094H105.399ZM97.0436 44.5673H98.8877V32.8331H97.0436V44.5673ZM94.1387 41.7853C94.1387 42.6264 93.8208 42.8922 93.2349 42.8922H92.3642V38.9193H93.2349C93.8208 38.9193 94.1387 39.1875 94.1387 40.0251V41.7853ZM93.2349 37.2407H92.3642V32.8331H90.5202V44.5673H93.2349C95.0813 44.5673 95.9874 43.5455 95.9874 41.6683V40.142C95.9874 38.2649 95.0813 37.2407 93.2349 37.2407ZM80.0783 41.7853C80.0783 42.6264 79.7582 42.8922 79.1722 42.8922H78.2992V38.9193H79.1722C79.7582 38.9193 80.0783 39.1875 80.0783 40.0251V41.7853ZM79.1722 37.2407H78.2992V32.8331H76.4551V44.5673H79.1722C81.0175 44.5673 81.9224 43.5455 81.9224 41.6683V40.142C81.9224 38.2649 81.0175 37.2407 79.1722 37.2407ZM26.3994 40.8473L27.2901 34.9134L28.1761 40.8473H26.3994ZM26.0344 32.8331L24.1548 44.5673H25.8466L26.1667 42.4421H28.4313L28.7479 44.5673H30.6097L28.7325 32.8331H26.0344ZM36.6026 46.1444H38.3983V42.9276H37.5949V32.8331H35.7189V42.8922H33.6198V32.8331H31.7756V44.5673H36.6026V46.1444ZM45.5229 44.5673V32.8331H43.4921L41.9836 37.6766L41.3138 40.2613V32.8331H39.6682V44.5673H41.5631L43.1095 39.1875L43.8607 36.3039V44.5673H45.5229ZM21.1057 37.8609H19.0089V32.8331H17.166V44.5673H19.0089V39.5396H21.1057V44.5673H22.983V32.8331H21.1057V37.8609Z" fill="white"/>
<path d="M18.925 16.3464C18.925 15.4947 18.7656 14.8402 18.4431 14.3854C18.1205 13.9294 17.6623 13.7014 17.0704 13.7014C16.4928 13.7014 16.0403 13.9294 15.7142 14.383C15.3858 14.8355 15.2204 15.4758 15.2121 16.3051V16.7469C15.2121 17.5963 15.3775 18.2495 15.7083 18.7103C16.0367 19.1722 16.4951 19.4025 17.081 19.4025C17.6729 19.4025 18.1276 19.1769 18.4478 18.7268C18.7656 18.2743 18.925 17.6152 18.925 16.7469V16.3464ZM20.2659 16.7469C20.2659 17.5041 20.1325 18.1657 19.8714 18.7351C19.6115 19.3057 19.2405 19.7416 18.755 20.0452C18.2695 20.3511 17.7107 20.5035 17.081 20.5035C16.4573 20.5035 15.9009 20.3511 15.413 20.0452C14.9227 19.7416 14.5446 19.3068 14.2788 18.7433C14.0142 18.1787 13.8784 17.5289 13.8748 16.7906V16.3559C13.8748 15.6057 14.0084 14.943 14.2742 14.3688C14.5424 13.7935 14.9168 13.3541 15.4024 13.0505C15.8855 12.7433 16.4443 12.5921 17.0704 12.5921C17.6965 12.5921 18.2529 12.7433 18.7384 13.0457C19.2239 13.3458 19.5984 13.7793 19.8607 14.344C20.1265 14.9111 20.26 15.5703 20.2659 16.3216V16.7469Z" fill="#7BC2E3"/>
<path d="M22.9144 16.7229V19.329H24.4855C24.9356 19.329 25.2876 19.2073 25.5404 18.9628C25.792 18.7182 25.9173 18.3934 25.9173 17.9893C25.9173 17.6007 25.7921 17.2947 25.5487 17.0703C25.3006 16.8446 24.9569 16.7277 24.5198 16.7229H22.9144ZM26.462 13.7779H22.9144V15.6432H24.4902C25.0549 15.6432 25.5452 15.7413 25.9658 15.9338C26.384 16.1287 26.7041 16.4028 26.9203 16.7584C27.14 17.1152 27.2486 17.5286 27.2486 17.9976C27.2486 18.7159 27.0054 19.2935 26.5163 19.7306C26.0284 20.1666 25.3633 20.3898 24.5198 20.3981H21.5747V12.6981H26.462V13.7779Z" fill="#7BC2E3"/>
<path d="M29.6928 16.4619H31.2982C31.7755 16.4619 32.1381 16.3508 32.3874 16.1252C32.6378 15.9031 32.7631 15.5782 32.7631 15.1577C32.7631 14.7395 32.6378 14.4087 32.3826 14.1594C32.1275 13.9102 31.7802 13.7826 31.336 13.7779H29.6928V16.4619ZM29.6928 17.5416V20.3981H28.3531V12.6981H31.2982C32.1606 12.6981 32.8411 12.9226 33.3479 13.3703C33.8559 13.818 34.1075 14.4122 34.1075 15.1494C34.1075 15.9031 33.8582 16.4926 33.3644 16.912C32.8682 17.3302 32.1736 17.5416 31.2817 17.5416H29.6928Z" fill="#7BC2E3"/>
<path d="M36.4477 17.5251H38.6805L37.563 14.3296L36.4477 17.5251ZM39.055 18.6048H36.0744L35.4483 20.3981H34.0591L36.9664 12.6981H38.1678L41.081 20.3981H39.6835L39.055 18.6048Z" fill="#7BC2E3"/>
<path d="M45.8572 14.7964C45.8572 14.4526 45.726 14.1762 45.4661 13.973C45.205 13.7662 44.8506 13.6658 44.4029 13.6658C44.0177 13.6658 43.6989 13.7662 43.4401 13.9694C43.1826 14.1738 43.0551 14.4337 43.0551 14.7538H41.7213C41.7213 14.3333 41.8371 13.9612 42.071 13.6339C42.3037 13.3055 42.6273 13.0504 43.0384 12.8684C43.4507 12.6865 43.9067 12.5979 44.4029 12.5979C45.2853 12.5979 45.9682 12.7905 46.4561 13.172C46.944 13.5571 47.1909 14.0947 47.1909 14.7869C47.1909 15.1366 47.0846 15.4567 46.8743 15.7485C46.6629 16.0415 46.364 16.2719 45.9836 16.4408C46.416 16.5896 46.7431 16.8153 46.9711 17.1153C47.1991 17.4178 47.3102 17.7911 47.3102 18.2388C47.3102 18.9299 47.0479 19.4804 46.5187 19.888C45.9894 20.2943 45.2853 20.4975 44.4029 20.4975C43.8606 20.4975 43.3692 20.4007 42.9298 20.2081C42.4903 20.012 42.1631 19.7497 41.9398 19.4131C41.7213 19.0787 41.6126 18.6948 41.6126 18.2612H42.944C42.944 18.5908 43.0822 18.8708 43.3563 19.0988C43.6303 19.3268 43.9799 19.4402 44.4029 19.4402C44.8754 19.4402 45.2547 19.3292 45.5418 19.1059C45.83 18.8838 45.9729 18.5967 45.9729 18.2388C45.9729 17.8041 45.8489 17.4898 45.5961 17.2949C45.3445 17.1 44.9747 17.0019 44.4869 17.0019H43.5831V15.9446H44.4407C45.3846 15.9446 45.8572 15.5619 45.8572 14.7964Z" fill="#7BC2E3"/>
<path d="M53.3929 16.3464C53.3929 15.4947 53.2334 14.8402 52.9085 14.3854C52.5848 13.9294 52.13 13.7014 51.5382 13.7014C50.9582 13.7014 50.5057 13.9294 50.1796 14.383C49.8548 14.8355 49.6882 15.4758 49.6812 16.3051V16.7469C49.6812 17.5963 49.8465 18.2495 50.1749 18.7103C50.5057 19.1722 50.9629 19.4025 51.5465 19.4025C52.1407 19.4025 52.5967 19.1769 52.9168 18.7268C53.2334 18.2743 53.3929 17.6152 53.3929 16.7469V16.3464ZM54.7302 16.7469C54.7302 17.5041 54.6014 18.1657 54.3403 18.7351C54.0804 19.3057 53.706 19.7416 53.2193 20.0452C52.7373 20.3511 52.1785 20.5035 51.5465 20.5035C50.9227 20.5035 50.3675 20.3511 49.8784 20.0452C49.3905 19.7416 49.0137 19.3068 48.7479 18.7433C48.482 18.1787 48.3462 17.5289 48.3438 16.7906V16.3559C48.3438 15.6057 48.4762 14.943 48.742 14.3688C49.0078 13.7935 49.3823 13.3541 49.8678 13.0505C50.3533 12.7433 50.9097 12.5921 51.5382 12.5921C52.1655 12.5921 52.7219 12.7433 53.2063 13.0457C53.6894 13.3458 54.0639 13.7793 54.3297 14.344C54.5955 14.9111 54.7279 15.5703 54.7302 16.3216V16.7469Z" fill="#7BC2E3"/>
<path d="M57.3918 16.9238V19.329H58.8779C59.2985 19.329 59.6257 19.225 59.862 19.0171C60.0982 18.808 60.2152 18.521 60.2152 18.1488C60.2152 17.3491 59.8088 16.9391 58.989 16.9238H57.3918ZM57.3918 15.9385H58.7043C59.1189 15.9385 59.445 15.844 59.6777 15.6574C59.914 15.4672 60.0297 15.2002 60.0297 14.8541C60.0297 14.4737 59.9222 14.1996 59.7048 14.0295C59.4887 13.8617 59.1508 13.7779 58.6937 13.7779H57.3918V15.9385ZM56.0546 20.3981V12.6981H58.6937C59.5643 12.6981 60.2258 12.8718 60.6806 13.2215C61.1366 13.5711 61.3623 14.0921 61.3623 14.7808C61.3623 15.1329 61.2666 15.4506 61.0776 15.733C60.8874 16.0141 60.6085 16.2351 60.2423 16.3886C60.6593 16.502 60.9795 16.7147 61.2075 17.0266C61.4355 17.3372 61.549 17.7129 61.549 18.1488C61.549 18.873 61.3162 19.4259 60.8519 19.8169C60.3888 20.202 59.7238 20.3981 58.8614 20.3981H56.0546Z" fill="#7BC2E3"/>
<path d="M64.5568 17.5251H66.7895L65.6719 14.3296L64.5568 17.5251ZM67.1628 18.6048H64.1799L63.5562 20.3981H62.1646L65.0754 12.6981H66.2733L69.1888 20.3981H67.7924L67.1628 18.6048Z" fill="#7BC2E3"/>
<path d="M76.273 20.3981H74.9392V16.9805H71.4968V20.3981H70.1572V12.6981H71.4968V15.9031H74.9392V12.6981H76.273V20.3981Z" fill="#7BC2E3"/>
<path d="M82.538 12.6981H83.8753V20.3981H82.538V14.9131L79.1594 20.3981H77.8197V12.6981H79.1594V18.1866L82.538 12.6981Z" fill="#7BC2E3"/>
<path d="M89.945 16.9616H86.7825V19.329H90.4789V20.3981H85.4453V12.6981H90.4424V13.7779H86.7825V15.9031H89.945V16.9616Z" fill="#7BC2E3"/>
</svg>
