<svg width="157" height="98" viewBox="0 0 157 98" fill="none" xmlns="http://www.w3.org/2000/svg">
<rect y="6" width="150" height="92" rx="10" fill="#00A8AA"/>
<rect x="7" width="150" height="92" rx="10" fill="white"/>
<path d="M129.938 58.0001H34V52.4504H129.938V58.0001Z" fill="#00A8AA"/>
<path d="M123.491 44.7275V37.7938H125.456V39.8216H127.129C128.871 39.8216 130 40.781 130 42.2681C130 42.9776 129.762 43.5605 129.274 44.032C128.786 44.4917 128.104 44.7275 127.225 44.7275H123.491ZM125.456 43.2134H126.822C127.589 43.2134 128.035 42.8662 128.035 42.254C128.035 41.643 127.589 41.2817 126.822 41.2817H125.456V43.2134Z" fill="#00A8AA"/>
<path d="M110.779 44.7275L113.774 41.0308L111.085 37.7938H113.302L115.42 40.4057V37.7938H117.356V40.4057L119.46 37.7938H121.676L118.987 41.0308L121.997 44.7275H119.655L117.356 41.7673V44.7275H115.42V41.7673L113.105 44.7275H110.779Z" fill="#00A8AA"/>
<path d="M103.882 43.9072C103.143 43.241 102.767 42.3509 102.767 41.2531C102.767 40.2246 103.102 39.3626 103.77 38.6683C104.439 37.9599 105.317 37.6127 106.39 37.6127C107.407 37.6127 108.202 37.974 108.8 38.6823C109.4 39.3907 109.707 40.2527 109.707 41.2813V41.7949H104.718C104.927 42.7402 105.819 43.241 107.046 43.241C107.825 43.241 108.564 43.0311 109.274 42.6288V44.1992C108.647 44.6718 107.77 44.9076 106.627 44.9076C105.54 44.9076 104.62 44.5745 103.882 43.9072ZM107.77 40.5447C107.728 39.7801 107.184 39.155 106.307 39.155C105.414 39.155 104.815 39.725 104.718 40.5447H107.77Z" fill="#00A8AA"/>
<path d="M100.791 43.4197H100.785L98.2335 37.748H97.0068L94.3663 43.4197H93.1807V45.0558H101.933V43.4197H100.791ZM96.2387 43.4197L97.5996 40.4971L98.9134 43.4197H98.8663H96.2387Z" fill="#00A8AA"/>
<path d="M88.6145 37.7057C86.5973 37.7057 84.9566 39.343 84.9566 41.3544C84.9566 43.3657 86.5973 45.0018 88.6145 45.0018C90.6316 45.0018 92.2724 43.3657 92.2724 41.3544C92.2724 39.343 90.6316 37.7057 88.6145 37.7057ZM88.6145 43.395C87.4842 43.395 86.568 42.4814 86.568 41.3544C86.568 40.2273 87.4842 39.3125 88.6145 39.3125C89.7448 39.3125 90.6611 40.2273 90.6611 41.3544C90.6611 42.4814 89.7448 43.395 88.6145 43.395Z" fill="#00A8AA"/>
<path d="M72.2023 37.7057C70.1852 37.7057 68.5444 39.343 68.5444 41.3544C68.5444 43.3657 70.1852 45.0018 72.2023 45.0018C74.2194 45.0018 75.8603 43.3657 75.8603 41.3544C75.8603 39.343 74.2194 37.7057 72.2023 37.7057ZM72.2023 43.395C71.072 43.395 70.1558 42.4814 70.1558 41.3544C70.1558 40.2273 71.072 39.3125 72.2023 39.3125C73.3326 39.3125 74.2489 40.2273 74.2489 41.3544C74.2489 42.4814 73.3326 43.395 72.2023 43.395Z" fill="#00A8AA"/>
<path d="M59.0031 44.7275V37.7938H60.9402L62.961 40.3775L64.9958 37.7938H66.9329V44.7275H65.0793V40.4479L63.3514 42.6012H62.5705L60.8567 40.4479V44.7275H59.0031Z" fill="#00A8AA"/>
<path d="M51.9839 43.9072C51.2453 43.2269 50.8688 42.3368 50.8688 41.239C50.8688 40.1413 51.2453 39.2664 51.9839 38.6131C52.7367 37.9458 53.6282 37.6127 54.6738 37.6127C55.4407 37.6127 56.1228 37.7652 56.7356 38.0713V39.739C56.1369 39.4611 55.5382 39.3215 54.9666 39.3215C54.3527 39.3215 53.8376 39.5021 53.42 39.8645C53.0154 40.2105 52.806 40.6831 52.806 41.2531C52.806 41.8231 53.0153 42.2957 53.4329 42.657C53.8516 43.0182 54.3668 43.1988 54.9666 43.1988C55.677 43.1988 56.304 43.0452 56.8473 42.7262V44.3939C56.1922 44.741 55.4677 44.9076 54.6456 44.9076C53.6141 44.9076 52.7225 44.5745 51.9839 43.9072Z" fill="#00A8AA"/>
<path d="M45.7887 37.7057C43.7715 37.7057 42.1307 39.343 42.1307 41.3544C42.1307 43.3657 43.7715 45.0018 45.7887 45.0018C47.8058 45.0018 49.4465 43.3657 49.4465 41.3544C49.4465 39.343 47.8058 37.7057 45.7887 37.7057ZM45.7887 43.395C44.6583 43.395 43.7421 42.4814 43.7421 41.3544C43.7421 40.2273 44.6583 39.3125 45.7887 39.3125C46.919 39.3125 47.8351 40.2273 47.8351 41.3544C47.8351 42.4814 46.919 43.395 45.7887 43.395Z" fill="#00A8AA"/>
<path d="M34.0491 44.7273V35H38.3127C39.3583 35 40.1945 35.278 40.7944 35.8198C41.4072 36.3616 41.7131 37.0571 41.7131 37.932C41.7131 38.8069 41.4072 39.5165 40.7944 40.0583C40.1945 40.6002 39.3583 40.8781 38.3127 40.8781H36.0556V44.7273H34.0491ZM36.0556 39.1693H38.174C39.1361 39.1693 39.7064 38.7389 39.7064 37.9602C39.7064 37.1826 39.1361 36.751 38.174 36.751H36.0556V39.1693Z" fill="#00A8AA"/>
<path d="M78.1902 45.0558L80.3132 40.4971L82.3621 45.0558H84.2405L80.9531 37.748H79.7145L76.3119 45.0558H78.1902Z" fill="#00A8AA"/>
</svg>
