<svg width="157" height="98" viewBox="0 0 157 98" fill="none" xmlns="http://www.w3.org/2000/svg">
<rect y="6" width="150" height="92" rx="10" fill="#B72723"/>
<rect x="7" width="150" height="92" rx="10" fill="white"/>
<path d="M45.5433 69.0276H47.4856C48.7272 69.0276 49.1695 69.8135 49.1695 70.5502C49.1695 71.2522 48.7284 72.0704 47.4856 72.0704H45.5433V69.0276ZM47.6538 67.692H44V76.0966H45.5433V73.3965H47.6647C49.7032 73.3965 50.768 71.9638 50.768 70.5502C50.768 69.1295 49.6995 67.692 47.6538 67.692Z" fill="#2C2C2B"/>
<path d="M55.4173 74.8493C54.2574 74.8493 53.5098 74.0886 53.5098 72.9123C53.5098 71.7227 54.2574 70.9537 55.4173 70.9537C56.5783 70.9537 57.3259 71.7227 57.3259 72.9123C57.3259 74.0886 56.5783 74.8493 55.4173 74.8493ZM55.4173 69.6299C53.3668 69.6299 51.9882 70.9501 51.9882 72.9123C51.9882 74.8385 53.3981 76.185 55.4173 76.185C57.4293 76.185 58.8355 74.8385 58.8355 72.9123C58.8355 70.98 57.4293 69.6299 55.4173 69.6299Z" fill="#2C2C2B"/>
<path d="M65.3208 74.1224C64.87 74.6124 64.31 74.8604 63.6525 74.8604C62.4518 74.8604 61.6766 74.0877 61.6766 72.891C61.6766 71.7074 62.4482 70.9443 63.6417 70.9443C64.4915 70.9443 64.9818 71.3349 65.316 71.6763L65.5347 71.8991L66.4314 70.8317L66.2426 70.6508C65.5311 69.962 64.6681 69.6314 63.608 69.6314C61.5371 69.6314 60.1453 70.9443 60.1453 72.9029C60.1453 74.8592 61.5407 76.1733 63.6188 76.1733C64.709 76.1733 65.5288 75.8558 66.2751 75.1443L66.471 74.9574L65.5347 73.89L65.3208 74.1224Z" fill="#2C2C2B"/>
<path d="M67.9423 76.0953H69.4291V70.955H72.1911V76.0953H73.6767V69.7092H67.9423V76.0953Z" fill="#2C2C2B"/>
<path d="M78.8315 74.8495C77.6861 74.8495 76.9458 74.0888 76.9458 72.9125C76.9458 71.7049 77.6681 70.9539 78.8315 70.9539C79.9121 70.9539 80.6945 71.778 80.6945 72.9125C80.6945 74.0349 79.9121 74.8495 78.8315 74.8495ZM80.7319 70.3717C80.2198 69.8853 79.4878 69.6182 78.6297 69.6182C76.7066 69.6182 75.4133 70.9479 75.4133 72.9244C75.4133 74.8747 76.6873 76.1852 78.5852 76.1852C79.4674 76.1852 80.2161 75.8965 80.7354 75.3742L80.7799 76.0953H82.1705V69.7092H80.7642L80.7319 70.3717Z" fill="#2C2C2B"/>
<path d="M83.5255 70.9766H85.6385V76.0953H87.1265V70.9766H89.2275V69.7092H83.5255V70.9766Z" fill="#2C2C2B"/>
<path d="M94.0214 70.9551C95.1608 70.9551 95.8965 71.7194 95.8965 72.9029C95.8965 74.0853 95.156 74.8496 94.0118 74.8496C92.9241 74.8496 92.1357 74.0302 92.1357 72.9029C92.1357 71.7733 92.9289 70.9551 94.0214 70.9551ZM94.1897 69.6314C93.3364 69.6314 92.584 69.9093 92.0611 70.4041L91.9999 69.7081H90.6597V78.0001H92.1584V75.5168C92.6777 75.9409 93.3808 76.1733 94.1801 76.1733C96.1164 76.1733 97.418 74.8592 97.418 72.9029C97.418 70.9443 96.12 69.6314 94.1897 69.6314Z" fill="#2C2C2B"/>
<path d="M100.544 73.7614C100.55 73.4955 100.555 73.2271 100.562 72.9612V69.7076H99.1093V76.095H100.386L103.475 72.0053C103.471 72.2125 103.469 72.4162 103.465 72.6174L103.457 76.095H104.9V69.7076H103.635L100.544 73.7614Z" fill="#2C2C2B"/>
<path d="M110.033 74.8493C108.873 74.8493 108.124 74.0886 108.124 72.9123C108.124 71.7227 108.873 70.9537 110.033 70.9537C111.192 70.9537 111.94 71.7227 111.94 72.9123C111.94 74.0886 111.192 74.8493 110.033 74.8493ZM110.033 69.6299C107.982 69.6299 106.602 70.9501 106.602 72.9123C106.602 74.8385 108.012 76.185 110.033 76.185C112.045 76.185 113.451 74.8385 113.451 72.9123C113.451 70.98 112.045 69.6299 110.033 69.6299Z" fill="#2C2C2B"/>
<path d="M114.299 69.7076V70.9762H116.411V76.095H117.899V70.9762H120V69.7076H114.299Z" fill="#2C2C2B"/>
<path fill-rule="evenodd" clip-rule="evenodd" d="M96.8342 29.5235V27.1984L73.1766 40.548C69.4603 42.6468 67.1658 46.5736 67.1658 50.8286V51.0814V54.3469V56.9476L76.59 62.4066C76.929 62.6054 77.3557 62.3634 77.3593 61.9693L77.4086 52.0289C77.4122 51.4971 77.6995 51.0083 78.1635 50.7496L87.4892 45.4919C93.2632 42.2359 96.8342 36.1337 96.8342 29.5235Z" fill="url(#paint0_linear)"/>
<path fill-rule="evenodd" clip-rule="evenodd" d="M96.8341 30.0687V27.1985C96.8341 24.5954 95.4314 22.7889 93.1597 21.5047L75.638 11.7429C75.1332 12.9947 75.0756 14.5292 73.9374 15.3354C74.5011 15.8446 75.0299 16.4028 75.477 17.1012C76.3784 18.5147 77.0985 20.0505 77.6429 21.6353C78.1814 23.1986 78.578 24.7703 78.7559 26.3983C78.8052 26.4174 78.8568 26.4426 78.9073 26.4701L91.1297 33.3798C93.6754 34.8185 96.8341 32.9857 96.8341 30.0687Z" fill="url(#paint1_linear)"/>
<path fill-rule="evenodd" clip-rule="evenodd" d="M96.8342 29.5235V27.1984L73.1766 40.548C69.4603 42.6468 67.1658 46.5736 67.1658 50.8286V56.9476L87.4892 45.4919C93.2632 42.2359 96.8342 36.1337 96.8342 29.5235Z" fill="url(#paint2_linear)"/>
<path d="M96.8341 27.197L88.5672 31.9324L86.9374 31.0232L96.5215 25.2085C96.5215 25.2085 96.8197 26.0051 96.8341 27.197Z" fill="#2C2D2D"/>
<path d="M67.1658 56.9476L78.0745 50.7975C78.0745 50.7975 77.6357 51.0946 77.4855 51.5354C77.3605 51.9068 77.4026 53.1047 77.4026 53.1047L69.0805 58.0569L67.1658 56.9476Z" fill="#2C2D2D"/>
<defs>
<linearGradient id="paint0_linear" x1="67.1646" y1="44.7731" x2="96.8354" y2="44.7731" gradientUnits="userSpaceOnUse">
<stop stop-color="#B3B2B2"/>
<stop offset="0.431373" stop-color="#C6C5C5"/>
<stop offset="1" stop-color="#D9D9D8"/>
</linearGradient>
<linearGradient id="paint1_linear" x1="66.8845" y1="28.8911" x2="94.1788" y2="18.8067" gradientUnits="userSpaceOnUse">
<stop stop-color="#D12829"/>
<stop offset="1" stop-color="#7B2725"/>
</linearGradient>
<linearGradient id="paint2_linear" x1="96.8354" y1="42.073" x2="67.1646" y2="42.073" gradientUnits="userSpaceOnUse">
<stop stop-color="#DF2925"/>
<stop offset="1" stop-color="#7B2723"/>
</linearGradient>
</defs>
</svg>
